<?xml version="1.0" standalone="no"?>
<!DOCTYPE svg PUBLIC "-//W3C//DTD SVG 20010904//EN"
 "http://www.w3.org/TR/2001/REC-SVG-20010904/DTD/svg10.dtd">
<svg version="1.0" xmlns="http://www.w3.org/2000/svg" viewBox="0 0 619.000000 266.000000"
 preserveAspectRatio="xMidYMid meet">

<g transform="translate(0.000000,266.000000) scale(0.100000,-0.100000)"
fill="#000000" stroke="none">
<path d="M50 2653 c-14 -3 -28 -10 -32 -17 -10 -14 -9 -1275 0 -1336 l7 -45
215 0 215 0 6 205 c3 113 7 206 7 208 1 1 31 2 67 2 l65 0 0 -205 c0 -204 0
-205 23 -210 12 -3 112 -4 222 -3 l200 3 3 592 c2 591 2 592 -19 603 -24 13
-396 10 -416 -3 -10 -6 -13 -56 -13 -193 l0 -184 -63 0 -64 0 -6 98 c-4 53 -7
181 -7 284 0 138 -3 189 -12 195 -15 9 -359 14 -398 6z m350 -352 l0 -289 128
-4 c70 -2 130 -3 135 -1 4 3 7 89 7 194 l0 189 154 0 153 0 7 -46 c3 -26 6
-264 6 -530 0 -375 -3 -485 -12 -491 -16 -10 -250 -17 -283 -9 l-25 6 0 173
c0 94 -3 189 -6 210 l-7 37 -128 0 -129 0 0 -210 0 -209 -32 -6 c-18 -3 -89
-5 -158 -3 l-125 3 -3 638 -2 637 160 0 160 0 0 -289z"/>
<path d="M1090 2446 c-19 -23 -8 -834 12 -901 39 -130 115 -223 222 -275 35
-16 69 -30 75 -30 6 0 11 -4 11 -10 0 -5 -6 -10 -12 -10 -7 0 -41 -13 -75 -29
-111 -53 -181 -143 -219 -282 -16 -56 -18 -115 -18 -476 -1 -226 2 -414 6
-418 11 -11 410 -14 431 -3 16 8 17 37 17 382 0 349 1 374 18 389 10 10 30 17
45 17 54 0 53 2 60 -405 3 -207 8 -380 11 -383 9 -8 410 -7 424 2 9 5 12 110
12 419 0 436 -3 467 -50 574 -36 83 -139 172 -232 202 -21 7 -38 16 -38 20 0
3 30 20 68 36 80 35 167 116 200 188 49 104 52 147 50 584 l-3 408 -216 3
-217 2 -6 -22 c-3 -13 -6 -184 -6 -380 l0 -357 -22 -15 c-28 -20 -58 -20 -83
-2 -18 13 -19 37 -24 392 l-6 378 -25 7 c-14 4 -109 7 -211 8 -151 1 -189 -2
-199 -13z m380 -401 c0 -383 2 -400 61 -430 51 -27 125 -16 161 24 l28 31 0
239 c0 131 3 293 7 360 l6 121 156 -2 156 -3 0 -385 c0 -370 -1 -388 -22 -456
-58 -182 -184 -259 -428 -259 -233 0 -348 65 -418 236 -21 52 -22 68 -25 462
l-3 407 160 0 161 0 0 -345z m278 -880 c143 -34 235 -114 275 -239 21 -68 22
-85 22 -461 l0 -390 -157 -3 -158 -3 -1 318 c0 372 -4 406 -48 445 -37 33
-102 38 -152 12 -56 -29 -59 -48 -59 -429 l0 -346 -157 3 -158 3 -3 355 c-2
226 1 379 8 422 30 178 143 292 320 321 60 10 210 6 268 -8z"/>
<path d="M2162 2450 l-22 -9 2 -593 3 -593 133 -3 132 -3 0 31 0 30 -69 0
c-38 0 -83 3 -100 6 l-31 7 0 533 0 534 189 0 188 0 104 -259 104 -260 5 257
5 257 158 3 157 3 0 -491 0 -490 35 0 35 0 0 48 c0 36 -5 54 -20 67 -26 23
-25 55 0 88 20 26 21 36 18 427 -3 343 -5 402 -18 411 -18 12 -414 8 -427 -4
-4 -5 -10 -51 -11 -103 -2 -52 -7 -94 -12 -94 -4 0 -25 44 -47 98 -35 87 -42
98 -69 103 -46 10 -416 9 -442 -1z"/>
<path d="M4273 2453 l-63 -4 0 -408 c0 -395 1 -408 20 -426 25 -23 25 -53 0
-85 -13 -17 -20 -41 -20 -72 0 -46 1 -48 28 -48 l29 0 6 263 c4 144 7 364 7
490 l0 227 378 -2 377 -3 0 -120 0 -120 -217 -3 -218 -2 0 -80 0 -80 214 0
213 0 7 -61 c3 -34 6 -90 6 -124 l0 -63 -214 -4 c-118 -1 -217 -6 -221 -9 -11
-12 -18 -77 -11 -113 l7 -36 217 -2 217 -3 3 -122 c2 -115 1 -122 -18 -128
-14 -4 -20 -15 -20 -36 0 -30 1 -30 48 -27 l47 3 0 185 0 185 -214 5 c-157 4
-215 8 -218 17 -4 10 46 13 214 15 l218 3 3 186 2 187 -220 7 c-121 4 -220 11
-220 16 0 5 98 10 218 11 l217 3 3 180 c2 160 1 181 -15 192 -13 10 -103 13
-382 11 -201 -1 -394 -3 -428 -5z"/>
<path d="M5152 2452 c-9 -6 -12 -134 -10 -603 l3 -594 209 -3 c142 -2 213 1
222 9 9 8 14 43 16 117 l3 107 30 -65 c16 -36 41 -87 55 -115 l25 -50 233 -3
c198 -2 233 0 238 13 3 8 -40 116 -95 241 l-101 227 55 58 c78 82 107 150 108
259 2 103 -18 164 -79 245 -47 63 -113 112 -189 140 -44 16 -91 19 -380 22
-181 2 -336 0 -343 -5z m670 -73 c72 -15 115 -39 164 -91 72 -74 89 -118 89
-228 0 -84 -3 -101 -27 -146 -15 -29 -54 -76 -87 -105 l-60 -54 94 -213 c52
-117 95 -215 95 -217 0 -3 -79 -4 -176 -3 l-175 3 -101 227 c-56 125 -105 225
-109 222 -5 -3 -9 -106 -9 -228 0 -223 0 -224 -22 -230 -30 -8 -262 -8 -282 0
-14 5 -16 62 -16 533 0 290 3 531 7 534 11 12 558 8 615 -4z"/>
<path d="M5520 2051 l0 -91 73 0 c86 0 115 17 123 71 5 30 1 42 -23 69 -26 30
-35 33 -101 38 l-72 5 0 -92z m125 -6 c0 -14 -8 -21 -27 -23 -24 -3 -28 0 -28
23 0 23 4 26 28 23 19 -2 27 -9 27 -23z"/>
<path d="M3214 2436 c-8 -22 0 -343 9 -353 5 -4 62 -10 128 -12 l119 -3 0
-187 0 -187 29 -28 28 -27 5 163 c3 90 3 202 0 251 l-5 87 -124 0 -124 0 3
123 3 122 413 3 412 2 0 -125 0 -125 -125 0 -125 0 0 -257 0 -257 30 29 30 28
2 191 3 191 117 5 c65 3 122 10 128 16 7 7 9 73 8 185 l-3 174 -478 3 c-403 2
-478 0 -483 -12z"/>
<path d="M2530 1617 l0 -207 30 0 c25 0 30 4 30 24 0 37 17 40 29 6 8 -26 15
-30 46 -30 l35 0 -15 38 c-9 20 -46 111 -82 202 -36 91 -67 167 -69 169 -2 2
-4 -89 -4 -202z"/>
<path d="M3261 1665 c-44 -46 -81 -88 -81 -92 0 -5 72 -80 160 -168 88 -88
160 -164 160 -170 0 -6 -72 -82 -160 -170 -88 -88 -160 -164 -160 -170 0 -6
40 -50 89 -99 l90 -89 166 161 c92 89 172 162 179 162 6 0 84 -73 173 -162
l163 -163 90 90 c50 49 89 93 88 97 -2 4 -74 82 -162 173 l-159 166 24 27 c13
15 86 91 163 169 l141 143 -90 90 c-49 49 -94 90 -100 90 -5 0 -83 -73 -172
-162 l-162 -161 -167 161 c-92 89 -172 162 -179 162 -7 0 -49 -38 -94 -85z"/>
<path d="M2436 1343 c-3 -21 -6 -69 -6 -108 0 -38 3 -87 6 -107 l7 -38 436 0
437 0 69 70 69 70 -74 75 -74 75 -432 0 -431 0 -7 -37z m610 -28 c4 -9 19 -15
35 -15 43 0 47 -24 12 -73 -34 -49 -86 -87 -119 -87 -39 0 -36 18 6 40 35 18
39 24 29 36 -8 10 -21 13 -41 9 -38 -9 -36 7 10 60 39 47 59 55 68 30z m-262
-14 c18 -20 15 -41 -6 -41 -16 0 -48 31 -48 47 0 20 34 16 54 -6z m-216 -15
c6 -29 -47 -126 -69 -126 -25 0 -24 10 4 63 13 24 27 54 30 67 6 25 30 23 35
-4z m87 -28 c14 -29 25 -63 25 -75 0 -32 -28 -29 -40 5 -6 15 -20 44 -31 64
-11 21 -17 42 -14 48 14 23 37 7 60 -42z m251 11 c3 -6 -13 -31 -37 -55 -65
-66 -139 -95 -139 -55 0 13 9 21 30 26 16 4 51 26 77 50 52 48 58 51 69 34z
m444 -33 c0 -21 -23 -26 -111 -26 -72 0 -79 2 -79 20 0 19 7 20 95 20 75 0 95
-3 95 -14z"/>
<path d="M3020 1261 c0 -17 34 -22 49 -6 14 13 12 15 -17 15 -18 0 -32 -4 -32
-9z"/>
<path d="M4012 1307 l-72 -72 73 -73 72 -72 438 0 438 0 -3 143 -3 142 -435 3
-435 2 -73 -73z m578 8 c0 -11 11 -15 35 -15 47 0 54 -21 22 -69 -33 -50 -84
-89 -121 -93 -45 -5 -42 19 5 43 40 20 42 22 24 35 -10 8 -27 12 -37 8 -39
-12 -37 9 4 56 44 50 68 62 68 35z m-260 -15 c20 -15 22 -22 13 -31 -18 -18
-63 4 -63 31 0 25 18 25 50 0z m-217 -24 c-3 -37 -40 -113 -59 -120 -27 -10
-25 19 6 88 31 68 57 84 53 32z m90 -26 c33 -64 35 -90 7 -90 -11 0 -20 6 -20
13 0 8 -11 36 -25 63 -25 49 -26 79 -2 72 6 -2 24 -28 40 -58z m257 11 c0 -9
-78 -84 -110 -105 -34 -23 -70 -21 -70 3 0 13 9 21 30 26 16 4 51 26 77 50 42
37 73 48 73 26z m435 -31 c0 -12 -18 -16 -92 -18 -88 -3 -93 -2 -93 18 0 20 5
21 93 18 74 -2 92 -6 92 -18z"/>
<path d="M4573 1258 c2 -7 12 -13 22 -13 10 0 20 6 23 13 2 7 -6 12 -23 12
-17 0 -25 -5 -22 -12z"/>
<path d="M15 1067 c-4 -78 -6 -344 -4 -589 3 -350 7 -450 17 -460 10 -10 61
-13 218 -11 113 1 209 5 212 8 4 4 9 90 10 191 l4 184 64 0 64 0 0 -185 c0
-165 2 -185 18 -193 23 -13 403 -15 422 -2 13 8 15 72 18 462 1 249 -1 516 -5
593 l-8 140 -214 3 c-165 2 -216 -1 -223 -10 -4 -7 -8 -102 -8 -210 l0 -198
-65 0 -65 0 0 191 c0 112 -4 198 -10 210 -10 18 -23 19 -224 19 l-214 0 -7
-143z m385 -126 l0 -209 63 -7 c34 -3 94 -5 132 -3 l70 3 3 213 2 213 158 -3
157 -3 0 -535 0 -535 -157 -3 -158 -3 -2 193 -3 193 -132 3 -133 3 0 -196 0
-195 -160 0 -160 0 0 533 c0 294 3 537 7 540 3 4 75 7 160 7 l153 0 0 -209z"/>
<path d="M2146 1194 c-9 -23 -7 -1157 2 -1171 12 -19 439 -29 471 -11 16 9 35
42 60 105 54 136 61 138 61 11 0 -59 4 -110 10 -113 19 -12 384 -18 413 -6
l27 11 0 401 c0 386 -1 402 -20 426 -26 33 -25 65 0 88 17 15 20 29 18 69 -3
47 -5 51 -30 54 -21 3 -28 -1 -29 -15 -1 -10 -5 -232 -8 -493 l-6 -475 -157
-3 -158 -3 -2 257 -3 256 -94 -233 c-52 -129 -100 -244 -108 -257 -13 -22 -17
-22 -198 -22 l-185 0 0 540 0 540 100 0 100 0 0 30 0 30 -129 0 c-108 0 -130
-3 -135 -16z"/>
<path d="M5000 1182 c0 -21 6 -31 20 -35 20 -5 20 -12 18 -124 l-3 -118 -217
-9 -218 -9 0 -72 0 -72 98 -6 c53 -4 152 -7 220 -7 l123 0 -3 -122 -3 -123
-217 -3 -218 -2 0 -74 0 -73 89 -7 c50 -4 137 -4 195 0 57 3 116 4 130 0 l26
-6 0 -119 c0 -99 -3 -120 -16 -125 -9 -3 -179 -6 -380 -6 l-364 0 -2 493 -3
492 -32 3 -33 3 0 -54 c0 -41 5 -58 20 -72 11 -10 20 -28 20 -40 0 -12 -9 -30
-20 -40 -19 -18 -20 -31 -20 -426 0 -224 3 -410 8 -412 13 -9 870 -12 878 -4
13 13 18 331 5 355 -11 22 -16 22 -226 22 -195 0 -254 7 -192 24 12 3 110 6
218 6 l196 0 7 46 c7 57 6 200 -2 274 l-7 55 -215 5 c-133 3 -215 9 -215 15 0
6 82 12 215 15 l215 5 7 45 c3 25 7 88 7 140 0 52 -4 115 -7 140 l-7 45 -47 3
c-47 3 -48 3 -48 -26z"/>
<path d="M5147 1203 c-11 -11 -8 -1181 3 -1188 16 -10 501 -15 612 -6 83 7
117 14 164 37 79 39 148 109 187 192 29 61 32 76 32 162 0 88 -3 101 -34 164
-19 38 -54 89 -77 113 -24 24 -44 48 -44 54 0 5 43 106 96 224 53 117 94 222
92 232 -3 17 -20 18 -228 21 -171 2 -230 -1 -242 -10 -9 -7 -35 -57 -58 -110
-24 -54 -47 -98 -51 -98 -5 0 -9 42 -9 94 0 52 -3 101 -6 110 -5 14 -34 16
-218 16 -117 0 -216 -3 -219 -7z m370 -65 c4 -7 10 -116 13 -243 l5 -230 105
238 105 237 173 0 c94 0 172 -4 172 -8 0 -5 -25 -64 -56 -133 -31 -68 -73
-163 -94 -211 l-38 -88 48 -35 c114 -84 161 -236 116 -373 -25 -73 -98 -151
-178 -188 l-63 -29 -310 0 -310 0 -3 525 c-1 289 0 531 3 538 3 9 44 12 154
12 109 0 152 -3 158 -12z"/>
<path d="M5527 459 c-4 -30 -7 -74 -7 -98 l0 -44 46 7 c26 3 60 6 76 6 39 0
78 40 78 79 0 19 -10 42 -27 61 -24 26 -37 31 -94 37 l-66 6 -6 -54z m121 -31
c16 -16 -3 -38 -34 -38 -19 0 -24 5 -24 25 0 19 5 25 23 25 13 0 28 -5 35 -12z"/>
<path d="M2530 843 c0 -119 2 -214 5 -211 8 8 165 402 165 416 0 7 -13 12 -30
12 -23 0 -33 -7 -47 -32 l-17 -33 -9 33 c-8 26 -15 32 -38 32 l-29 0 0 -217z"/>
<path d="M3503 798 l-33 -34 0 -187 0 -187 -112 0 c-62 0 -119 -4 -126 -8 -9
-7 -12 -51 -10 -188 l3 -179 475 0 475 0 3 174 c2 119 -1 178 -9 187 -8 10
-40 14 -124 14 l-112 0 -7 53 c-3 28 -6 115 -6 193 l0 140 -30 29 -30 29 0
-257 0 -257 124 0 c104 0 125 -3 130 -16 3 -9 6 -60 6 -115 0 -98 0 -100 -26
-109 -15 -6 -188 -10 -420 -10 l-395 0 3 122 3 123 123 3 c86 2 124 6 128 15
2 7 3 122 2 255 l-3 243 -32 -33z"/>
</g>
</svg>
