<svg xmlns="http://www.w3.org/2000/svg" width="2105" height="122" viewBox="0 0 2105 122" version="1.1"><path d="M 1 61 L 1 121 1052 121 L 2103 121 2103 61 L 2103 1 1052 1 L 1 1 1 61 M 3 61 L 3 119 1052 119 L 2101 119 2101 61 L 2101 3 1052 3 L 3 3 3 61 M 12.458 13.250 C 12.195 13.937, 12.096 35.650, 12.239 61.500 L 12.500 108.500 1051.500 108.500 L 2090.500 108.500 2090.500 60.500 L 2090.500 12.500 1051.719 12.250 C 221.219 12.049, 12.841 12.250, 12.458 13.250 M 14 60.500 L 14 107 1051.500 107 L 2089 107 2089 60.500 L 2089 14 1051.500 14 L 14 14 14 60.500 M 97.542 24.932 C 97.225 25.445, 98.091 26.007, 99.467 26.182 C 101.927 26.495, 101.833 26.743, 93.830 41.214 C 89.354 49.307, 85.370 55.728, 84.975 55.484 C 84.209 55.011, 69 27.542, 69 26.632 C 69 26.335, 72.037 25.934, 75.750 25.742 C 79.463 25.549, 75.750 25.383, 67.500 25.372 C 57.627 25.360, 54.886 25.549, 59.480 25.927 L 66.459 26.500 71.530 35.500 C 74.319 40.450, 78.308 47.666, 80.395 51.536 L 84.189 58.571 73.978 77.036 C 68.361 87.191, 63.333 96.039, 62.803 96.698 C 62.274 97.358, 59.739 98.064, 57.170 98.268 C 54.602 98.472, 59.250 98.661, 67.500 98.688 C 75.750 98.715, 81.020 98.458, 79.211 98.118 C 77.402 97.778, 75.851 97.115, 75.765 96.645 C 75.564 95.539, 89.307 70.002, 90.104 70.001 C 90.728 70, 104.257 94.539, 104.812 96.677 C 105.008 97.435, 103.532 98.021, 100.812 98.265 C 98.440 98.477, 103.925 98.665, 113 98.683 C 122.075 98.701, 127.700 98.436, 125.500 98.094 C 123.300 97.752, 121.576 97.029, 121.670 96.486 C 122.004 94.549, 135.620 70.627, 136.551 70.343 C 137.455 70.066, 151.736 95.885, 151.283 96.977 C 151.164 97.265, 149.364 97.774, 147.283 98.108 C 145.202 98.443, 150.475 98.717, 159 98.717 C 168.103 98.718, 172.359 98.458, 169.311 98.087 C 166.458 97.740, 163.935 97.241, 163.707 96.978 C 162.179 95.223, 143 59.706, 143 58.632 C 143 57.896, 146.910 50.253, 151.688 41.647 L 160.377 26 166.629 26 C 170.068 26, 173.142 25.580, 173.459 25.066 C 173.807 24.504, 168.062 24.128, 159.018 24.121 C 150.246 24.115, 144 24.503, 144 25.055 C 144 25.575, 147.188 26, 151.083 26 C 154.979 26, 158.017 26.358, 157.833 26.796 C 157.650 27.233, 153.955 34.015, 149.621 41.867 C 144.659 50.858, 141.392 55.792, 140.795 55.195 C 139.459 53.859, 125 27.932, 125 26.873 C 125 26.393, 125.927 26, 127.059 26 C 128.191 26, 128.840 25.550, 128.500 25 C 127.710 23.721, 98.330 23.657, 97.542 24.932 M 197 25.250 C 197 25.663, 200.107 26, 203.905 26 L 210.811 26 219.405 41.644 C 224.132 50.249, 228 57.873, 228 58.587 C 228 60.174, 208.008 96.200, 206.545 97.250 C 205.970 97.662, 203.825 97.912, 201.777 97.806 C 199.730 97.699, 197.742 97.924, 197.361 98.306 C 196.979 98.688, 203.518 99, 211.892 99 C 220.266 99, 226.886 98.625, 226.603 98.167 C 226.320 97.708, 224.718 97.535, 223.044 97.780 C 220.913 98.093, 220.010 97.818, 220.033 96.863 C 220.084 94.729, 233.667 70.466, 234.635 70.780 C 236.357 71.337, 249.907 97.099, 248.694 97.510 C 248.037 97.732, 246.150 98.091, 244.500 98.307 C 242.850 98.523, 248.700 98.692, 257.500 98.682 C 266.300 98.672, 271.813 98.487, 269.750 98.272 C 267.688 98.056, 266 97.483, 266 96.998 C 266 95.577, 280.319 70, 281.114 70 C 281.854 70, 296 95.792, 296 97.141 C 296 97.550, 294.087 98.057, 291.750 98.268 C 289.413 98.478, 294.475 98.648, 303 98.645 C 311.525 98.642, 316.398 98.472, 313.830 98.268 C 311.261 98.064, 308.730 97.358, 308.204 96.698 C 307.679 96.039, 302.631 87.211, 296.987 77.080 L 286.725 58.661 289.794 53.080 C 291.483 50.011, 295.495 42.775, 298.710 37 L 304.557 26.500 310.528 26.195 C 313.813 26.027, 316.899 25.493, 317.388 25.008 C 317.901 24.497, 312.110 24.125, 303.658 24.125 C 295.618 24.125, 288.780 24.547, 288.461 25.062 C 288.122 25.612, 290.803 26, 294.941 26 C 298.823 26, 302 26.255, 302 26.567 C 302 27.699, 286.482 55.948, 285.846 55.973 C 285.262 55.997, 269 27.479, 269 26.430 C 269 26.194, 269.900 26, 271 26 C 272.100 26, 273 25.550, 273 25 C 273 24.376, 267.167 24, 257.500 24 C 247.833 24, 242 24.376, 242 25 C 242 25.550, 242.900 26, 244 26 C 245.100 26, 246 26.276, 246 26.614 C 246 27.406, 232.463 51.984, 230.696 54.402 C 229.484 56.059, 228.566 54.796, 221.225 41.368 L 213.096 26.500 220.298 25.930 C 224.259 25.617, 227.275 25.267, 227 25.152 C 225.500 24.528, 197 24.620, 197 25.250 M 341.797 25.197 C 342.184 25.581, 345.419 26.031, 348.988 26.197 L 355.476 26.500 364.272 42.479 L 373.069 58.458 370.602 62.979 C 369.246 65.466, 364.377 74.250, 359.782 82.500 L 351.428 97.500 347.215 97.582 C 344.898 97.627, 342.702 97.965, 342.335 98.332 C 341.967 98.699, 348.379 98.941, 356.583 98.868 C 364.788 98.796, 369.925 98.444, 368 98.086 C 365.853 97.687, 364.610 96.926, 364.784 96.117 C 365.225 94.067, 378.242 70, 378.908 70.002 C 379.528 70.004, 394 96.126, 394 97.243 C 394 97.596, 392.087 98.057, 389.750 98.268 C 387.413 98.478, 392.839 98.729, 401.809 98.825 C 410.779 98.921, 417.886 98.625, 417.603 98.167 C 417.320 97.708, 415.772 97.527, 414.162 97.763 C 412.553 97.999, 411.002 97.811, 410.716 97.346 C 410.066 96.291, 424.161 70.577, 425.414 70.532 C 426.959 70.478, 441.034 97.056, 439.699 97.508 C 439.039 97.731, 437.150 98.091, 435.500 98.307 C 433.850 98.523, 439.475 98.704, 448 98.709 C 457.063 98.715, 461.345 98.456, 458.311 98.087 C 455.458 97.740, 452.921 97.241, 452.674 96.978 C 451.459 95.685, 431.670 59.430, 431.690 58.535 C 431.703 57.966, 435.655 50.413, 440.474 41.750 L 449.234 26 455.617 26 C 459.128 26, 462 25.584, 462 25.075 C 462 24.551, 455.704 24.139, 447.500 24.125 C 438.996 24.111, 433 24.493, 433 25.050 C 433 25.573, 436.188 26, 440.083 26 C 443.979 26, 447.017 26.357, 446.833 26.793 C 445.702 29.484, 430.409 55.986, 430 55.963 C 429.725 55.948, 425.824 49.312, 421.332 41.218 C 413.384 26.896, 413.230 26.491, 415.599 26.182 C 416.938 26.007, 417.775 25.445, 417.458 24.932 C 416.670 23.657, 387.290 23.721, 386.500 25 C 386.160 25.550, 386.809 26, 387.941 26 C 389.073 26, 390 26.441, 390 26.979 C 390 28.731, 374.622 55.884, 373.887 55.430 C 373.081 54.932, 358 27.667, 358 26.709 C 358 26.369, 361.038 25.946, 364.750 25.768 C 368.615 25.583, 365.002 25.243, 356.297 24.972 C 347.935 24.713, 341.410 24.814, 341.797 25.197 M 486 25.250 C 486 25.663, 489.074 26, 492.831 26 L 499.662 26 507.780 40.750 C 512.245 48.862, 516.194 56.285, 516.554 57.243 C 516.992 58.410, 513.846 65.086, 507.043 77.422 C 501.452 87.561, 496.333 96.308, 495.669 96.860 C 495.004 97.411, 492.445 98.040, 489.980 98.257 C 487.516 98.473, 492.389 98.729, 500.809 98.825 C 509.229 98.921, 515.886 98.625, 515.603 98.167 C 515.320 97.708, 513.718 97.535, 512.044 97.780 C 510.138 98.060, 509 97.791, 509 97.062 C 509 95.595, 521.863 71.203, 523.010 70.494 C 523.855 69.972, 538 94.820, 538 96.825 C 538 97.405, 536.313 98.056, 534.250 98.272 C 532.188 98.487, 537.700 98.664, 546.500 98.664 C 555.300 98.664, 560.813 98.487, 558.750 98.272 C 556.688 98.056, 555 97.443, 555 96.909 C 555 95.380, 569.097 70, 569.946 70 C 570.653 70, 585 96.022, 585 97.305 C 585 97.624, 583.087 98.057, 580.750 98.268 C 578.413 98.478, 583.475 98.659, 592 98.668 C 600.525 98.678, 605.250 98.419, 602.500 98.093 L 597.500 97.500 589.815 84 C 585.589 76.575, 580.676 67.778, 578.898 64.451 L 575.665 58.402 584.586 42.451 L 593.506 26.500 599.503 26.195 C 602.801 26.027, 605.899 25.493, 606.388 25.008 C 606.901 24.497, 601.110 24.125, 592.658 24.125 C 584.618 24.125, 577.780 24.547, 577.461 25.062 C 577.122 25.612, 579.803 26, 583.941 26 C 587.823 26, 590.992 26.337, 590.982 26.750 C 590.944 28.311, 575.458 55.137, 574.579 55.163 C 573.719 55.189, 558.116 28.390, 558.036 26.750 C 558.016 26.337, 558.900 26, 560 26 C 561.100 26, 562 25.550, 562 25 C 562 24.376, 556.167 24, 546.500 24 C 536.833 24, 531 24.376, 531 25 C 531 25.550, 531.900 26, 533 26 C 534.100 26, 535 26.215, 535 26.478 C 535 27.209, 518.872 56, 518.462 56 C 518.156 56, 503.110 29.032, 502.167 26.792 C 501.983 26.356, 505.096 26, 509.083 26 C 513.071 26, 516.083 25.750, 515.777 25.444 C 514.920 24.587, 486 24.399, 486 25.250 M 630.592 24.989 C 631.092 25.487, 634.386 26.031, 637.913 26.197 L 644.327 26.500 653.153 42.551 L 661.979 58.603 651.173 78.051 L 640.367 97.500 635.654 97.613 C 633.062 97.675, 630.654 98.013, 630.304 98.363 C 629.953 98.713, 636.604 98.924, 645.083 98.832 C 653.563 98.739, 658.813 98.487, 656.750 98.272 C 654.688 98.056, 653 97.625, 653 97.314 C 653 96.113, 667.170 70.001, 667.816 70.011 C 668.384 70.020, 681.815 94.190, 682.813 96.998 C 682.985 97.482, 681.185 98.052, 678.813 98.265 C 676.441 98.477, 681.888 98.729, 690.917 98.825 C 699.946 98.921, 707.023 98.689, 706.643 98.309 C 706.263 97.930, 704.501 97.592, 702.726 97.559 C 700.396 97.517, 699.592 97.083, 699.831 96 C 700.482 93.050, 713.518 70.056, 714.389 70.322 C 715.474 70.652, 728.965 95.023, 728.985 96.690 C 728.993 97.344, 727.313 98.056, 725.250 98.272 C 723.188 98.487, 728.250 98.669, 736.500 98.675 C 744.750 98.681, 749.316 98.419, 746.646 98.093 L 741.792 97.500 730.898 78.104 L 720.003 58.709 729.081 42.354 L 738.158 26 744.579 26 C 748.193 26, 751 25.563, 751 25 C 751 24.379, 745.500 24, 736.500 24 C 727.943 24, 722 24.392, 722 24.956 C 722 25.482, 725.127 26.045, 728.950 26.206 L 735.900 26.500 727.700 41.228 C 723.190 49.328, 719.275 55.958, 719 55.962 C 718.725 55.965, 714.800 49.338, 710.278 41.234 C 702.217 26.786, 702.105 26.494, 704.545 26.182 C 705.914 26.007, 706.775 25.445, 706.458 24.932 C 705.662 23.645, 675 23.711, 675 25 C 675 25.550, 675.933 26, 677.073 26 C 678.240 26, 679.005 26.548, 678.823 27.252 C 678.320 29.203, 663.562 55.993, 663 55.977 C 662.431 55.961, 647.672 29.166, 647.177 27.250 C 646.942 26.343, 648.674 26, 653.486 26 C 657.413 26, 659.879 25.613, 659.532 25.051 C 659.206 24.524, 652.451 24.099, 644.315 24.094 C 635.584 24.088, 630.050 24.449, 630.592 24.989 M 775 25.042 C 775 25.569, 778.048 26, 781.774 26 L 788.548 26 797.274 41.871 C 802.073 50.600, 806 58.081, 806 58.494 C 806 59.574, 786.931 94.168, 785.216 96.200 C 784.362 97.211, 781.903 98.049, 779.141 98.269 C 776.588 98.473, 781.250 98.661, 789.500 98.688 C 797.750 98.715, 803.020 98.458, 801.211 98.118 C 799.402 97.778, 797.918 97.151, 797.914 96.725 C 797.901 95.471, 811.440 70.028, 812.128 70.013 C 812.879 69.997, 827 95.549, 827 96.924 C 827 97.449, 825.313 98.056, 823.250 98.272 C 821.188 98.487, 826.700 98.676, 835.500 98.690 C 844.300 98.704, 849.798 98.443, 847.717 98.108 C 845.636 97.774, 843.914 97.143, 843.890 96.707 C 843.820 95.457, 858.047 70, 858.813 70.004 C 859.452 70.008, 874 96.219, 874 97.366 C 874 97.652, 872.087 98.057, 869.750 98.268 C 867.413 98.478, 872.475 98.648, 881 98.645 C 889.525 98.642, 894.398 98.472, 891.830 98.268 C 889.261 98.064, 886.595 97.217, 885.905 96.385 C 884.066 94.170, 865 59.763, 865 58.661 C 865 57.694, 876.553 36.412, 880.694 29.750 C 882.963 26.100, 883.184 26, 888.954 26 C 892.214 26, 895.160 25.550, 895.500 25 C 895.901 24.351, 891.030 24, 881.618 24 C 873.030 24, 866.866 24.408, 866.500 25 C 866.110 25.631, 868.490 26, 872.941 26 C 876.823 26, 880 26.215, 880 26.478 C 880 26.741, 876.326 33.552, 871.835 41.613 C 864.424 54.918, 863.546 56.099, 862.317 54.418 C 860.540 51.989, 847 27.409, 847 26.614 C 847 26.276, 847.900 26, 849 26 C 850.100 26, 851 25.550, 851 25 C 851 23.651, 820.334 23.651, 819.500 25 C 819.148 25.570, 820.017 26, 821.524 26 C 822.978 26, 824.017 26.358, 823.833 26.796 C 822.986 28.818, 807.784 56, 807.500 56 C 807.115 56, 791 27.166, 791 26.478 C 791 26.215, 793.925 26, 797.500 26 C 801.075 26, 804 25.573, 804 25.051 C 804 24.497, 797.970 24.099, 789.500 24.094 C 780.921 24.088, 775 24.476, 775 25.042 M 919 24.999 C 919 25.501, 922.194 26.045, 926.098 26.206 L 933.196 26.500 942.033 42.496 L 950.869 58.491 946.728 65.996 C 944.450 70.123, 939.567 78.900, 935.877 85.500 L 929.168 97.500 924.555 97.613 C 922.017 97.675, 919.654 98.013, 919.304 98.363 C 918.953 98.713, 925.604 98.924, 934.083 98.832 C 942.563 98.739, 947.813 98.487, 945.750 98.272 C 943.688 98.056, 942 97.487, 942 97.008 C 942 95.617, 956.080 69.997, 956.826 70.032 C 957.642 70.070, 971.591 95.957, 971.283 96.862 C 971.164 97.213, 969.364 97.774, 967.283 98.108 C 965.202 98.443, 970.700 98.704, 979.500 98.690 C 988.300 98.676, 993.785 98.486, 991.689 98.268 C 989.343 98.024, 987.998 97.406, 988.189 96.659 C 988.766 94.409, 1002.494 70.015, 1003.187 70.008 C 1004.014 69.998, 1018 95.320, 1018 96.825 C 1018 97.405, 1016.313 98.056, 1014.250 98.272 C 1012.188 98.487, 1017.250 98.669, 1025.500 98.675 C 1033.750 98.681, 1038.290 98.419, 1035.589 98.093 L 1030.677 97.500 1019.740 78.052 C 1009.240 59.380, 1008.861 58.501, 1010.259 56.052 C 1011.060 54.648, 1015.186 47.313, 1019.427 39.750 L 1027.138 26 1033.569 26 C 1037.190 26, 1040 25.563, 1040 25 C 1040 24.379, 1034.500 24, 1025.500 24 C 1016.500 24, 1011 24.379, 1011 25 C 1011 25.565, 1013.858 26, 1017.573 26 C 1022.344 26, 1024.058 26.343, 1023.823 27.252 C 1023.266 29.412, 1008.532 55.991, 1007.889 55.996 C 1007.553 55.998, 1005.780 53.187, 1003.948 49.750 C 1002.117 46.313, 998.454 39.752, 995.809 35.171 C 993.164 30.590, 991 26.653, 991 26.421 C 991 26.190, 991.900 26, 993 26 C 994.100 26, 995 25.550, 995 25 C 995 24.376, 989.167 24, 979.500 24 C 969.833 24, 964 24.376, 964 25 C 964 25.550, 964.900 26, 966 26 C 967.100 26, 968 26.286, 968 26.636 C 968 27.649, 952.555 55.941, 951.985 55.972 C 951.307 56.009, 936 28.246, 936 26.979 C 936 26.440, 938.947 26, 942.559 26 C 946.440 26, 948.879 25.613, 948.532 25.051 C 947.776 23.829, 919 23.778, 919 24.999 M 1063.517 25.027 C 1063.848 25.562, 1067.129 26.002, 1070.809 26.004 L 1077.500 26.009 1085 39.669 C 1089.125 47.182, 1093.115 54.543, 1093.866 56.026 C 1095.165 58.592, 1094.805 59.499, 1086.482 74.612 C 1073.235 98.666, 1073.884 97.823, 1068.273 98.264 C 1065.648 98.471, 1070.250 98.661, 1078.500 98.688 C 1086.750 98.715, 1092.020 98.458, 1090.211 98.118 C 1088.402 97.778, 1086.867 97.124, 1086.802 96.665 C 1086.645 95.570, 1100.326 70.025, 1101.077 70.011 C 1101.779 69.998, 1116 95.686, 1116 96.968 C 1116 97.469, 1114.313 98.056, 1112.250 98.272 C 1110.188 98.487, 1115.700 98.676, 1124.500 98.690 C 1133.300 98.704, 1138.700 98.436, 1136.500 98.094 C 1134.300 97.752, 1132.577 97.029, 1132.671 96.486 C 1132.984 94.682, 1146.774 70.575, 1147.644 70.310 C 1148.317 70.105, 1161.480 93.268, 1162.813 97.002 C 1162.985 97.484, 1161.185 98.052, 1158.813 98.265 C 1156.441 98.477, 1161.475 98.648, 1170 98.645 C 1178.525 98.642, 1183.412 98.473, 1180.859 98.269 C 1178.113 98.050, 1175.623 97.206, 1174.758 96.200 C 1172.629 93.722, 1154 60.128, 1154 58.765 C 1154 58.130, 1157.929 50.499, 1162.732 41.806 L 1171.463 26 1177.673 26 C 1181.088 26, 1184.160 25.550, 1184.500 25 C 1184.902 24.350, 1179.844 24, 1170.059 24 C 1160.686 24, 1155 24.378, 1155 25 C 1155 25.573, 1158.028 26, 1162.083 26 C 1165.979 26, 1169.017 26.358, 1168.833 26.796 C 1168.650 27.233, 1164.955 34.015, 1160.621 41.867 C 1155.716 50.756, 1152.389 55.789, 1151.805 55.205 C 1150.526 53.926, 1136 27.832, 1136 26.814 C 1136 26.366, 1136.900 26, 1138 26 C 1139.100 26, 1140 25.550, 1140 25 C 1140 23.711, 1109.338 23.645, 1108.542 24.932 C 1108.225 25.445, 1109.091 26.007, 1110.467 26.182 C 1112.926 26.495, 1112.832 26.746, 1104.801 41.267 C 1100.309 49.389, 1096.301 55.689, 1095.894 55.267 C 1095 54.340, 1081.185 29.647, 1080.365 27.510 C 1079.885 26.257, 1080.912 26, 1086.393 26 C 1090.027 26, 1093 25.565, 1093 25.033 C 1093 24.454, 1086.972 24.064, 1077.958 24.061 C 1068.466 24.057, 1063.138 24.414, 1063.517 25.027 M 1208 25.250 C 1208 25.663, 1211.102 26, 1214.893 26 L 1221.786 26 1230.546 41.750 C 1235.364 50.413, 1239.303 57.950, 1239.301 58.500 C 1239.294 59.920, 1218.871 96.344, 1217.574 97.250 C 1216.983 97.662, 1214.825 97.912, 1212.777 97.806 C 1210.730 97.699, 1208.742 97.924, 1208.361 98.306 C 1207.979 98.688, 1214.518 99, 1222.892 99 C 1231.266 99, 1237.886 98.625, 1237.603 98.167 C 1237.320 97.708, 1235.718 97.535, 1234.044 97.780 C 1231.906 98.094, 1231.016 97.821, 1231.055 96.863 C 1231.137 94.815, 1244.456 70.784, 1245.516 70.771 C 1246.370 70.760, 1259.919 94.297, 1260.320 96.486 C 1260.419 97.029, 1258.700 97.752, 1256.500 98.094 C 1254.300 98.436, 1259.700 98.704, 1268.500 98.690 C 1277.300 98.676, 1282.813 98.487, 1280.750 98.272 C 1278.688 98.056, 1277 97.465, 1277 96.958 C 1277 95.575, 1291.395 70.004, 1292.174 70.002 C 1292.927 70, 1307 95.636, 1307 97.008 C 1307 97.487, 1305.313 98.056, 1303.250 98.272 C 1301.188 98.487, 1306.250 98.669, 1314.500 98.675 C 1322.750 98.681, 1327.256 98.419, 1324.514 98.093 L 1319.528 97.500 1308.807 78.500 C 1302.910 68.050, 1298.092 59.050, 1298.099 58.500 C 1298.106 57.950, 1302.076 50.525, 1306.922 42 L 1315.733 26.500 1322.366 26.204 C 1334.809 25.650, 1329.041 24.125, 1314.500 24.125 C 1306.144 24.125, 1300 24.522, 1300 25.063 C 1300 25.578, 1302.925 26, 1306.500 26 C 1310.075 26, 1313 26.286, 1313 26.636 C 1313 27.817, 1297.506 55.944, 1296.839 55.972 C 1296.323 55.994, 1281.619 30.262, 1280.167 26.796 C 1279.983 26.358, 1280.771 26, 1281.917 26 C 1283.063 26, 1284 25.550, 1284 25 C 1284 24.376, 1278.167 24, 1268.500 24 C 1258.833 24, 1253 24.376, 1253 25 C 1253 25.550, 1253.900 26, 1255 26 C 1256.100 26, 1257 26.276, 1257 26.614 C 1257 27.398, 1243.472 51.972, 1241.727 54.358 C 1240.558 55.957, 1239.542 54.557, 1232.268 41.325 L 1224.119 26.500 1231.310 25.930 C 1235.264 25.617, 1238.275 25.267, 1238 25.152 C 1236.500 24.528, 1208 24.620, 1208 25.250 M 1352.797 25.197 C 1353.184 25.581, 1356.425 26.031, 1360 26.197 L 1366.500 26.500 1372.166 36.703 C 1375.283 42.315, 1379.243 49.553, 1380.968 52.788 L 1384.102 58.669 1373.279 78.085 L 1362.456 97.500 1358.229 97.582 C 1355.905 97.627, 1353.702 97.965, 1353.335 98.332 C 1352.967 98.699, 1359.379 98.941, 1367.583 98.868 C 1375.788 98.796, 1380.925 98.444, 1379 98.086 C 1377.073 97.728, 1375.609 96.898, 1375.743 96.239 C 1376.123 94.365, 1389.357 70, 1389.994 70 C 1390.595 70, 1404.278 94.642, 1404.812 96.685 C 1405.007 97.434, 1403.515 98.023, 1400.812 98.265 C 1398.440 98.477, 1403.839 98.729, 1412.809 98.825 C 1421.779 98.921, 1428.886 98.625, 1428.603 98.167 C 1428.320 97.708, 1426.772 97.527, 1425.162 97.763 C 1423.553 97.999, 1421.998 97.806, 1421.707 97.335 C 1421.097 96.348, 1435.188 70.760, 1436.579 70.328 C 1437.419 70.067, 1450.650 94.177, 1450.941 96.500 C 1451.010 97.050, 1449.364 97.774, 1447.283 98.108 C 1445.202 98.443, 1450.475 98.717, 1459 98.717 C 1468.103 98.718, 1472.359 98.458, 1469.311 98.087 C 1466.458 97.740, 1463.935 97.241, 1463.707 96.978 C 1463.034 96.205, 1442.999 60.008, 1442.738 59.094 C 1442.607 58.636, 1446.502 51.002, 1451.394 42.130 L 1460.288 26 1466.644 26 C 1470.140 26, 1473 25.584, 1473 25.075 C 1473 24.551, 1466.704 24.139, 1458.500 24.125 C 1449.996 24.111, 1444 24.493, 1444 25.050 C 1444 25.573, 1447.188 26, 1451.083 26 C 1454.979 26, 1458.017 26.351, 1457.833 26.779 C 1456.483 29.936, 1441.517 55.994, 1441.068 55.970 C 1440.403 55.935, 1425.654 29.391, 1425.177 27.370 C 1424.980 26.537, 1425.690 26, 1426.986 26 C 1428.158 26, 1428.840 25.550, 1428.500 25 C 1428.133 24.406, 1421.843 24, 1413 24 C 1404.157 24, 1397.867 24.406, 1397.500 25 C 1397.160 25.550, 1397.809 26, 1398.941 26 C 1400.073 26, 1401 26.483, 1401 27.073 C 1401 28.868, 1385.626 55.887, 1384.870 55.420 C 1384.109 54.950, 1369 27.550, 1369 26.641 C 1369 26.339, 1372.037 25.946, 1375.750 25.768 C 1379.615 25.583, 1376.002 25.243, 1367.297 24.972 C 1358.935 24.713, 1352.410 24.814, 1352.797 25.197 M 1497 25.250 C 1497 25.663, 1500.106 26, 1503.902 26 L 1510.805 26 1519.482 41.967 C 1524.255 50.749, 1528.011 58.526, 1527.830 59.249 C 1527.538 60.412, 1508.276 95.764, 1507.272 96.978 C 1507.055 97.241, 1504.542 97.740, 1501.689 98.087 C 1498.396 98.488, 1502.093 98.770, 1511.809 98.859 C 1520.229 98.937, 1526.886 98.625, 1526.603 98.167 C 1526.320 97.708, 1524.718 97.535, 1523.044 97.780 C 1521.107 98.064, 1520 97.794, 1520 97.037 C 1520 95.761, 1530.979 74.765, 1533.304 71.593 C 1534.593 69.836, 1535.257 70.697, 1541.777 82.593 C 1545.668 89.692, 1548.900 95.950, 1548.959 96.500 C 1549.018 97.050, 1547.364 97.774, 1545.283 98.108 C 1543.202 98.443, 1548.700 98.704, 1557.500 98.690 C 1566.300 98.676, 1571.813 98.487, 1569.750 98.272 C 1567.688 98.056, 1566 97.425, 1566 96.870 C 1566 95.365, 1580.263 70, 1581.110 70 C 1581.774 70, 1596 96.137, 1596 97.358 C 1596 97.648, 1594.088 98.057, 1591.750 98.268 C 1589.412 98.478, 1594.475 98.648, 1603 98.645 C 1611.525 98.642, 1616.352 98.471, 1613.727 98.264 C 1609.474 97.929, 1608.706 97.486, 1606.670 94.194 C 1602.082 86.773, 1587.001 59.268, 1587.044 58.397 C 1587.068 57.903, 1591.027 50.525, 1595.842 42 L 1604.597 26.500 1610.548 26.195 C 1613.822 26.027, 1616.899 25.493, 1617.388 25.008 C 1617.901 24.497, 1612.110 24.125, 1603.658 24.125 C 1595.618 24.125, 1588.780 24.547, 1588.461 25.062 C 1588.122 25.612, 1590.803 26, 1594.941 26 C 1598.823 26, 1601.992 26.337, 1601.982 26.750 C 1601.944 28.296, 1586.462 55.136, 1585.599 55.152 C 1584.851 55.166, 1570.892 31.294, 1569.283 27.250 C 1568.980 26.488, 1569.609 26, 1570.893 26 C 1572.052 26, 1573 25.550, 1573 25 C 1573 24.376, 1567.167 24, 1557.500 24 C 1547.833 24, 1542 24.376, 1542 25 C 1542 25.550, 1542.900 26, 1544 26 C 1545.100 26, 1546 26.267, 1546 26.594 C 1546 27.347, 1531.058 54.217, 1530.026 55.321 C 1529.453 55.933, 1515.441 32.224, 1513.167 26.796 C 1512.983 26.358, 1516.096 26, 1520.083 26 C 1524.071 26, 1527.083 25.750, 1526.777 25.444 C 1525.920 24.587, 1497 24.399, 1497 25.250 M 1641.800 25.197 C 1642.185 25.581, 1645.382 26.031, 1648.905 26.197 L 1655.311 26.500 1664.155 42.435 C 1669.020 51.200, 1673 58.412, 1673 58.462 C 1673 58.512, 1668.146 67.316, 1662.213 78.026 L 1651.425 97.500 1646.683 97.613 C 1644.075 97.675, 1641.654 98.013, 1641.304 98.363 C 1640.953 98.713, 1647.604 98.924, 1656.083 98.832 C 1664.563 98.739, 1669.813 98.487, 1667.750 98.272 C 1665.688 98.056, 1664 97.644, 1664 97.356 C 1664 96.202, 1678.208 70, 1678.831 70.004 C 1679.483 70.009, 1694 96.128, 1694 97.297 C 1694 97.620, 1692.088 98.057, 1689.750 98.268 C 1687.412 98.478, 1692.888 98.729, 1701.917 98.825 C 1710.946 98.921, 1718.023 98.689, 1717.643 98.309 C 1717.263 97.930, 1715.618 97.592, 1713.988 97.559 C 1712.357 97.527, 1710.965 97.050, 1710.894 96.500 C 1710.671 94.779, 1724.449 70.045, 1725.460 70.350 C 1726.582 70.689, 1739.942 94.930, 1739.977 96.690 C 1739.989 97.344, 1738.313 98.056, 1736.250 98.272 C 1734.188 98.487, 1739.475 98.676, 1748 98.691 C 1756.968 98.707, 1761.314 98.452, 1758.311 98.087 C 1755.458 97.740, 1752.924 97.241, 1752.681 96.978 C 1751.391 95.581, 1731.669 59.541, 1731.683 58.606 C 1731.692 57.998, 1735.624 50.413, 1740.420 41.750 L 1749.140 26 1755.570 26 C 1759.107 26, 1762 25.584, 1762 25.075 C 1762 24.551, 1755.704 24.139, 1747.500 24.125 C 1732.791 24.100, 1727.142 25.666, 1739.991 26.206 L 1746.982 26.500 1738.741 41.249 C 1734.208 49.360, 1730.275 55.988, 1730 55.976 C 1729.725 55.965, 1725.807 49.328, 1721.294 41.228 C 1713.265 26.818, 1713.142 26.493, 1715.561 26.182 C 1716.921 26.007, 1717.775 25.445, 1717.458 24.932 C 1716.670 23.657, 1687.290 23.721, 1686.500 25 C 1686.160 25.550, 1686.842 26, 1688.014 26 C 1689.334 26, 1690.023 26.536, 1689.823 27.407 C 1689.380 29.336, 1674.623 55.976, 1674 55.972 C 1673.446 55.968, 1658 27.646, 1658 26.635 C 1658 26.286, 1661 26, 1664.667 26 C 1668.333 26, 1671.083 25.750, 1670.777 25.444 C 1670.471 25.138, 1663.669 24.800, 1655.660 24.694 C 1647.652 24.587, 1641.415 24.814, 1641.800 25.197 M 1786 25.250 C 1786 25.663, 1789.046 26, 1792.768 26 L 1799.537 26 1808.268 41.806 C 1813.071 50.499, 1817 57.965, 1817 58.398 C 1817 59.676, 1796.975 95.775, 1795.662 96.865 C 1795.001 97.414, 1792.445 98.040, 1789.980 98.257 C 1787.516 98.473, 1792.437 98.729, 1800.917 98.825 C 1809.396 98.921, 1816.023 98.689, 1815.643 98.309 C 1815.263 97.930, 1813.618 97.592, 1811.988 97.559 C 1810.357 97.527, 1808.997 97.151, 1808.965 96.725 C 1808.874 95.528, 1822.415 70.028, 1823.149 70.013 C 1823.950 69.997, 1838 95.364, 1838 96.826 C 1838 97.405, 1836.313 98.056, 1834.250 98.272 C 1832.188 98.487, 1837.700 98.664, 1846.500 98.664 C 1855.300 98.664, 1860.813 98.487, 1858.750 98.272 C 1856.688 98.056, 1855 97.405, 1855 96.826 C 1855 95.329, 1869.058 70, 1869.889 70 C 1870.543 70, 1885 96.140, 1885 97.322 C 1885 97.632, 1883.088 98.057, 1880.750 98.268 C 1878.412 98.478, 1883.475 98.648, 1892 98.645 C 1900.525 98.642, 1905.376 98.472, 1902.780 98.266 C 1897.104 97.817, 1897.669 98.537, 1885.001 75.591 L 1875.666 58.683 1880.022 50.591 C 1882.419 46.141, 1886.434 38.900, 1888.946 34.500 L 1893.512 26.500 1899.506 26.195 C 1902.803 26.027, 1905.899 25.493, 1906.388 25.008 C 1906.901 24.497, 1901.110 24.125, 1892.658 24.125 C 1884.618 24.125, 1877.780 24.547, 1877.461 25.062 C 1877.122 25.612, 1879.803 26, 1883.941 26 C 1887.823 26, 1891 26.267, 1891 26.594 C 1891 27.359, 1876.049 54.228, 1875.002 55.345 C 1874.566 55.810, 1870.809 50.167, 1866.654 42.804 C 1857.267 26.174, 1857.197 26, 1859.893 26 C 1861.052 26, 1862 25.550, 1862 25 C 1862 24.376, 1856.167 24, 1846.500 24 C 1836.833 24, 1831 24.376, 1831 25 C 1831 25.550, 1831.900 26, 1833 26 C 1834.100 26, 1835 26.194, 1835 26.430 C 1835 27.079, 1818.855 56, 1818.493 56 C 1818.113 56, 1802 27.158, 1802 26.478 C 1802 26.215, 1804.925 26, 1808.500 26 C 1812.075 26, 1815 25.663, 1815 25.250 C 1815 24.837, 1808.475 24.500, 1800.500 24.500 C 1792.525 24.500, 1786 24.837, 1786 25.250 M 1931 25.250 C 1931 25.663, 1934.046 26, 1937.768 26 L 1944.537 26 1953.268 41.806 C 1958.071 50.499, 1962 57.965, 1962 58.398 C 1962 59.676, 1941.975 95.775, 1940.662 96.865 C 1940.001 97.414, 1937.445 98.040, 1934.980 98.257 C 1932.516 98.473, 1937.437 98.729, 1945.917 98.825 C 1954.396 98.921, 1961.023 98.689, 1960.643 98.309 C 1960.263 97.930, 1958.618 97.592, 1956.988 97.559 C 1955.357 97.527, 1953.997 97.151, 1953.965 96.725 C 1953.874 95.528, 1967.415 70.028, 1968.149 70.013 C 1968.950 69.997, 1983 95.364, 1983 96.826 C 1983 97.405, 1981.313 98.056, 1979.250 98.272 C 1977.188 98.487, 1982.700 98.664, 1991.500 98.664 C 2000.300 98.664, 2005.813 98.487, 2003.750 98.272 C 2001.688 98.056, 2000 97.405, 2000 96.826 C 2000 95.329, 2014.058 70, 2014.889 70 C 2015.543 70, 2030 96.140, 2030 97.322 C 2030 97.632, 2028.088 98.057, 2025.750 98.268 C 2023.412 98.478, 2028.475 98.648, 2037 98.645 C 2045.525 98.642, 2050.376 98.472, 2047.780 98.266 C 2042.104 97.817, 2042.669 98.537, 2030.001 75.591 L 2020.666 58.683 2025.022 50.591 C 2027.419 46.141, 2031.434 38.900, 2033.946 34.500 L 2038.512 26.500 2044.506 26.195 C 2047.803 26.027, 2050.899 25.493, 2051.388 25.008 C 2051.901 24.497, 2046.110 24.125, 2037.658 24.125 C 2029.618 24.125, 2022.780 24.547, 2022.461 25.062 C 2022.122 25.612, 2024.803 26, 2028.941 26 C 2032.823 26, 2036 26.267, 2036 26.594 C 2036 27.359, 2021.049 54.228, 2020.002 55.345 C 2019.566 55.810, 2015.809 50.167, 2011.654 42.804 C 2002.267 26.174, 2002.197 26, 2004.893 26 C 2006.052 26, 2007 25.550, 2007 25 C 2007 24.376, 2001.167 24, 1991.500 24 C 1981.833 24, 1976 24.376, 1976 25 C 1976 25.550, 1976.900 26, 1978 26 C 1979.100 26, 1980 26.194, 1980 26.430 C 1980 27.079, 1963.855 56, 1963.493 56 C 1963.113 56, 1947 27.158, 1947 26.478 C 1947 26.215, 1949.925 26, 1953.500 26 C 1957.075 26, 1960 25.663, 1960 25.250 C 1960 24.837, 1953.475 24.500, 1945.500 24.500 C 1937.525 24.500, 1931 24.837, 1931 25.250 M 112.731 27.667 C 108.150 35.455, 92.007 66.306, 92.027 67.235 C 92.042 67.931, 95.532 74.800, 99.784 82.500 L 107.514 96.500 113.043 96.794 L 118.573 97.087 126.859 82.017 L 135.144 66.947 125.892 49.723 C 114.597 28.696, 113.352 26.610, 112.731 27.667 M 246.656 47.034 L 235.845 67.001 244.026 82.047 L 252.207 97.094 257.736 96.797 L 263.265 96.500 271.108 82.500 C 275.422 74.800, 278.962 67.861, 278.976 67.081 C 278.997 65.819, 259.765 29.575, 258.123 27.783 C 257.762 27.389, 252.602 36.052, 246.656 47.034 M 400.254 30.197 C 395.488 38.167, 381 65.870, 381 67.011 C 381 67.703, 384.488 74.727, 388.750 82.619 L 396.500 96.969 402 96.984 L 407.500 96.999 415.805 81.937 L 424.110 66.876 413.409 47.188 C 407.523 36.360, 402.600 27.364, 402.468 27.197 C 402.336 27.031, 401.340 28.381, 400.254 30.197 M 535.475 47.139 C 525.080 66.628, 524.782 67.363, 526.237 69.889 C 527.064 71.325, 530.767 78.034, 534.466 84.797 L 541.192 97.094 546.690 96.797 L 552.188 96.500 560.094 82.213 C 564.442 74.356, 568 67.452, 568 66.871 C 568 65.813, 547.090 27, 546.520 27 C 546.353 27, 541.383 36.063, 535.475 47.139 M 680.318 46.280 C 674.718 56.851, 669.993 65.990, 669.818 66.589 C 669.643 67.187, 673.100 74.272, 677.500 82.332 L 685.500 96.987 691 96.978 L 696.500 96.969 704.734 81.950 L 712.968 66.931 702.234 46.991 C 696.330 36.025, 691.275 27.054, 691 27.056 C 690.725 27.059, 685.918 35.710, 680.318 46.280 M 825.040 45.925 C 819.417 56.409, 814.637 65.777, 814.418 66.743 C 814.199 67.709, 817.575 74.800, 821.920 82.500 L 829.821 96.500 835.311 96.797 L 840.802 97.094 848.901 82.374 C 853.355 74.277, 857 67.306, 857 66.882 C 857 66.036, 837.145 29.002, 835.984 27.682 C 835.588 27.232, 830.663 35.441, 825.040 45.925 M 968.739 47.137 L 957.978 67.243 966.239 82.158 L 974.500 97.073 979.974 96.786 L 985.448 96.500 993.639 81.765 L 1001.829 67.031 992.165 49.164 C 986.849 39.338, 981.825 30.338, 981 29.164 C 979.569 27.129, 979.004 27.957, 968.739 47.137 M 1113.608 46.417 C 1107.774 57.160, 1103.008 66.524, 1103.018 67.225 C 1103.028 67.926, 1106.559 74.800, 1110.865 82.500 L 1118.693 96.500 1124.243 96.797 L 1129.793 97.094 1137.897 82.190 C 1142.353 73.993, 1146 67.081, 1146 66.831 C 1146 66.333, 1125.163 27.830, 1124.576 27.243 C 1124.379 27.045, 1119.443 35.673, 1113.608 46.417 M 1257.676 47.113 L 1246.852 67.106 1255.120 82.097 L 1263.387 97.088 1268.847 96.794 L 1274.307 96.500 1282.135 82.500 C 1286.441 74.800, 1289.969 67.825, 1289.976 67 C 1289.987 65.644, 1270.777 29.454, 1269.173 27.810 C 1268.803 27.430, 1263.629 36.116, 1257.676 47.113 M 1410.250 32.165 C 1401.866 47.104, 1392 65.961, 1392 67.045 C 1392 67.719, 1395.487 74.723, 1399.750 82.608 L 1407.500 96.944 1413.006 96.972 L 1418.512 97 1426.844 81.983 L 1435.176 66.965 1426.387 50.733 C 1421.553 41.805, 1416.618 32.774, 1415.421 30.665 L 1413.244 26.831 1410.250 32.165 M 1546.529 47.131 C 1538.346 62.425, 1535.957 67.712, 1536.687 68.914 C 1537.216 69.786, 1540.936 76.483, 1544.951 83.796 L 1552.252 97.092 1557.702 96.796 L 1563.151 96.500 1571.030 82.500 C 1575.363 74.800, 1578.929 67.890, 1578.954 67.144 C 1578.996 65.892, 1559.703 29.482, 1558.062 27.717 C 1557.662 27.287, 1552.472 36.023, 1546.529 47.131 M 1691.189 46.591 C 1685.517 57.335, 1681.017 66.885, 1681.189 67.813 C 1681.360 68.741, 1684.875 75.679, 1689 83.231 L 1696.500 96.961 1702.040 96.981 L 1707.579 97 1711.452 89.750 C 1713.582 85.763, 1717.307 79.027, 1719.732 74.781 L 1724.139 67.063 1713.319 47.057 C 1707.369 36.055, 1702.275 27.053, 1702 27.055 C 1701.725 27.056, 1696.860 35.848, 1691.189 46.591 M 1835.489 47.021 C 1829.611 58.033, 1825.030 67.596, 1825.309 68.271 C 1825.587 68.947, 1829.187 75.575, 1833.307 83 L 1840.799 96.500 1846.277 96.796 L 1851.756 97.093 1859.878 82.476 C 1864.345 74.437, 1868 67.431, 1868 66.905 C 1868 65.874, 1847.066 27, 1846.511 27 C 1846.326 27, 1841.366 36.010, 1835.489 47.021 M 1980.489 47.021 C 1974.611 58.033, 1970.030 67.596, 1970.309 68.271 C 1970.587 68.947, 1974.187 75.575, 1978.307 83 L 1985.799 96.500 1991.277 96.796 L 1996.756 97.093 2004.878 82.476 C 2009.345 74.437, 2013 67.431, 2013 66.905 C 2013 65.874, 1992.066 27, 1991.511 27 C 1991.326 27, 1986.366 36.010, 1980.489 47.021" stroke="none" fill="#0e0e0e" fill-rule="evenodd"/><path d="M 3 61 L 3 119 1052 119 L 2101 119 2101 61 L 2101 3 1052 3 L 3 3 3 61 M 12.458 13.250 C 12.195 13.937, 12.096 35.650, 12.239 61.500 L 12.500 108.500 1051.500 108.500 L 2090.500 108.500 2090.500 60.500 L 2090.500 12.500 1051.719 12.250 C 221.219 12.049, 12.841 12.250, 12.458 13.250 M 107.500 23.657 C 117.003 24.388, 128.779 24.440, 128.349 23.750 C 128.092 23.337, 122.396 23.079, 115.691 23.175 C 108.986 23.271, 105.300 23.488, 107.500 23.657 M 259.961 23.733 C 268.273 23.954, 272.710 24.470, 273.287 25.282 C 273.908 26.156, 274.037 26.077, 273.744 25 C 273.409 23.768, 271.024 23.491, 260.418 23.450 L 247.500 23.401 259.961 23.733 M 396.500 23.657 C 406.003 24.388, 417.779 24.440, 417.349 23.750 C 417.092 23.337, 411.396 23.079, 404.691 23.175 C 397.986 23.271, 394.300 23.488, 396.500 23.657 M 548.961 23.733 C 557.273 23.954, 561.710 24.470, 562.287 25.282 C 562.908 26.156, 563.037 26.077, 562.744 25 C 562.409 23.768, 560.024 23.491, 549.418 23.450 L 536.500 23.401 548.961 23.733 M 680 23.676 C 693.400 24.400, 707.004 24.438, 707.002 23.750 C 707.001 23.337, 699.688 23.085, 690.750 23.189 C 681.813 23.293, 676.975 23.512, 680 23.676 M 819.652 23.750 C 819.395 24.163, 823.981 24.381, 829.843 24.237 C 849.505 23.751, 851.618 23.380, 835.809 23.189 C 827.179 23.085, 819.908 23.337, 819.652 23.750 M 978.958 23.736 C 989.682 23.957, 994.681 24.429, 995.284 25.277 C 995.910 26.159, 996.039 26.082, 995.744 25 C 995.403 23.749, 992.695 23.493, 979.418 23.459 L 963.500 23.417 978.958 23.736 M 1107.998 23.750 C 1107.997 24.163, 1112.834 24.381, 1118.748 24.237 C 1138.658 23.749, 1140.599 23.379, 1124.250 23.189 C 1115.313 23.085, 1107.999 23.337, 1107.998 23.750 M 1270.961 23.733 C 1279.273 23.954, 1283.710 24.470, 1284.287 25.282 C 1284.908 26.156, 1285.037 26.077, 1284.744 25 C 1284.409 23.768, 1282.024 23.491, 1271.418 23.450 L 1258.500 23.401 1270.961 23.733 M 1407.500 23.657 C 1417.003 24.388, 1428.779 24.440, 1428.349 23.750 C 1428.092 23.337, 1422.396 23.079, 1415.691 23.175 C 1408.986 23.271, 1405.300 23.488, 1407.500 23.657 M 1559.961 23.733 C 1568.273 23.954, 1572.710 24.470, 1573.287 25.282 C 1573.908 26.156, 1574.037 26.077, 1573.744 25 C 1573.409 23.768, 1571.024 23.491, 1560.418 23.450 L 1547.500 23.401 1559.961 23.733 M 1696.500 23.657 C 1706.003 24.388, 1717.779 24.440, 1717.349 23.750 C 1717.092 23.337, 1711.396 23.079, 1704.691 23.175 C 1697.986 23.271, 1694.300 23.488, 1696.500 23.657 M 1843.292 23.742 C 1847.027 23.935, 1852.877 23.934, 1856.292 23.739 C 1859.706 23.545, 1856.650 23.387, 1849.500 23.389 C 1842.350 23.390, 1839.556 23.550, 1843.292 23.742 M 1988.292 23.742 C 1992.027 23.935, 1997.877 23.934, 2001.292 23.739 C 2004.706 23.545, 2001.650 23.387, 1994.500 23.389 C 1987.350 23.390, 1984.556 23.550, 1988.292 23.742 M 52 24.750 C 52 25.163, 58.975 25.500, 67.500 25.500 C 76.025 25.500, 83 25.163, 83 24.750 C 83 24.337, 76.025 24, 67.500 24 C 58.975 24, 52 24.337, 52 24.750 M 204.206 24.741 C 207.895 24.932, 214.195 24.934, 218.206 24.743 C 222.218 24.553, 219.200 24.396, 211.500 24.395 C 203.800 24.393, 200.518 24.549, 204.206 24.741 M 341.655 24.750 C 341.400 25.163, 348.080 25.500, 356.500 25.500 C 364.920 25.500, 371.600 25.163, 371.345 24.750 C 370.740 23.770, 342.260 23.770, 341.655 24.750 M 493.206 24.741 C 496.895 24.932, 503.195 24.934, 507.206 24.743 C 511.218 24.553, 508.200 24.396, 500.500 24.395 C 492.800 24.393, 489.518 24.549, 493.206 24.741 M 1215.206 24.741 C 1218.895 24.932, 1225.195 24.934, 1229.206 24.743 C 1233.218 24.553, 1230.200 24.396, 1222.500 24.395 C 1214.800 24.393, 1211.518 24.549, 1215.206 24.741 M 1352.655 24.750 C 1352.400 25.163, 1359.123 25.500, 1367.595 25.500 C 1376.068 25.500, 1383 25.163, 1383 24.750 C 1383 24.337, 1376.277 24, 1368.059 24 C 1359.841 24, 1352.909 24.337, 1352.655 24.750 M 1504.206 24.741 C 1507.895 24.932, 1514.195 24.934, 1518.206 24.743 C 1522.218 24.553, 1519.200 24.396, 1511.500 24.395 C 1503.800 24.393, 1500.518 24.549, 1504.206 24.741 M 1641.651 24.750 C 1641.395 25.163, 1645.531 25.381, 1650.842 25.235 C 1667.956 24.765, 1669.841 24.365, 1655.809 24.180 C 1648.279 24.081, 1641.908 24.337, 1641.651 24.750 M 1793.206 24.741 C 1796.895 24.932, 1803.195 24.934, 1807.206 24.743 C 1811.218 24.553, 1808.200 24.396, 1800.500 24.395 C 1792.800 24.393, 1789.518 24.549, 1793.206 24.741 M 1938.206 24.741 C 1941.895 24.932, 1948.195 24.934, 1952.206 24.743 C 1956.218 24.553, 1953.200 24.396, 1945.500 24.395 C 1937.800 24.393, 1934.518 24.549, 1938.206 24.741 M 75.776 97.149 C 76.174 97.532, 77.850 98.038, 79.500 98.273 C 81.150 98.508, 75.750 98.697, 67.500 98.693 C 57.422 98.688, 54.141 98.450, 57.500 97.968 L 62.500 97.249 57.578 97.375 C 54.568 97.451, 52.493 97.996, 52.236 98.777 C 51.905 99.782, 55.051 99.994, 67.076 99.777 C 77.392 99.590, 82.458 99.131, 82.715 98.360 C 82.944 97.669, 81.507 97.068, 79.073 96.836 C 76.861 96.625, 75.378 96.766, 75.776 97.149 M 364.699 97.072 C 365.140 97.498, 366.850 98.038, 368.500 98.273 C 370.150 98.508, 364.836 98.768, 356.691 98.850 C 345.720 98.961, 342.067 98.701, 342.595 97.845 C 343.038 97.130, 342.870 96.962, 342.155 97.405 C 338.788 99.485, 341.991 100.034, 356.002 99.776 C 370.591 99.508, 375.803 98.233, 367.699 96.916 C 365.609 96.576, 364.259 96.647, 364.699 97.072 M 653 97.157 C 653 97.621, 654.688 98.095, 656.750 98.210 C 658.813 98.326, 653.525 98.687, 645 99.014 L 629.500 99.607 644.752 99.553 C 653.865 99.521, 660.104 99.104, 660.252 98.517 C 660.389 97.976, 658.813 97.260, 656.750 96.924 C 654.688 96.589, 653 96.694, 653 97.157 M 741.775 97.161 C 742.174 97.553, 744.525 98.049, 747 98.262 C 749.475 98.476, 744.750 98.665, 736.500 98.683 C 726.989 98.704, 722.964 98.440, 725.500 97.962 L 729.500 97.209 725.500 97.354 C 723.300 97.434, 721.611 97.950, 721.748 98.500 C 721.895 99.096, 728.093 99.612, 737.090 99.777 C 748.981 99.994, 752.095 99.782, 751.763 98.777 C 751.527 98.062, 749.074 97.268, 746.195 96.975 C 743.365 96.686, 741.376 96.770, 741.775 97.161 M 797.776 97.149 C 798.174 97.532, 799.850 98.038, 801.500 98.273 C 803.150 98.508, 797.750 98.697, 789.500 98.693 C 779.422 98.688, 776.141 98.450, 779.500 97.968 L 784.500 97.249 779.578 97.375 C 776.568 97.451, 774.493 97.996, 774.236 98.777 C 773.905 99.782, 777.051 99.994, 789.076 99.777 C 799.392 99.590, 804.458 99.131, 804.715 98.360 C 804.944 97.669, 803.507 97.068, 801.073 96.836 C 798.861 96.625, 797.378 96.766, 797.776 97.149 M 843.730 97.109 C 844.154 97.521, 846.075 98.042, 848 98.269 C 849.925 98.495, 844.300 98.688, 835.500 98.698 C 826.062 98.709, 821.140 98.422, 823.500 98 L 827.500 97.284 823.167 97.142 C 820.098 97.041, 818.955 97.365, 819.250 98.250 C 819.776 99.827, 850.858 100.070, 851.250 98.500 C 851.388 97.950, 849.579 97.244, 847.230 96.930 C 844.882 96.617, 843.307 96.697, 843.730 97.109 M 1030.775 97.161 C 1031.174 97.553, 1033.525 98.049, 1036 98.262 C 1038.475 98.476, 1033.750 98.665, 1025.500 98.683 C 1016.510 98.703, 1012.103 98.429, 1014.500 98 L 1018.500 97.284 1014.167 97.142 C 1011.099 97.041, 1009.955 97.365, 1010.249 98.250 C 1010.552 99.161, 1014.808 99.575, 1025.924 99.777 C 1037.950 99.994, 1041.095 99.782, 1040.763 98.777 C 1040.527 98.062, 1038.074 97.268, 1035.195 96.975 C 1032.365 96.686, 1030.376 96.770, 1030.775 97.161 M 1086.776 97.149 C 1087.174 97.532, 1088.850 98.038, 1090.500 98.273 C 1092.150 98.508, 1086.750 98.697, 1078.500 98.693 C 1068.422 98.688, 1065.141 98.450, 1068.500 97.968 L 1073.500 97.249 1068.578 97.375 C 1065.568 97.451, 1063.493 97.996, 1063.236 98.777 C 1062.905 99.782, 1066.051 99.994, 1078.076 99.777 C 1088.392 99.590, 1093.458 99.131, 1093.715 98.360 C 1093.944 97.669, 1092.507 97.068, 1090.073 96.836 C 1087.861 96.625, 1086.378 96.766, 1086.776 97.149 M 1375.699 97.072 C 1376.140 97.498, 1377.850 98.038, 1379.500 98.273 C 1381.150 98.508, 1375.836 98.768, 1367.691 98.850 C 1356.720 98.961, 1353.067 98.701, 1353.595 97.845 C 1354.038 97.130, 1353.870 96.962, 1353.155 97.405 C 1349.788 99.485, 1352.991 100.034, 1367.002 99.776 C 1381.591 99.508, 1386.803 98.233, 1378.699 96.916 C 1376.609 96.576, 1375.259 96.647, 1375.699 97.072 M 1664 97.157 C 1664 97.621, 1665.688 98.095, 1667.750 98.210 C 1669.813 98.326, 1664.525 98.687, 1656 99.014 L 1640.500 99.607 1655.752 99.553 C 1664.865 99.521, 1671.104 99.104, 1671.252 98.517 C 1671.389 97.976, 1669.813 97.260, 1667.750 96.924 C 1665.688 96.589, 1664 96.694, 1664 97.157 M 991.500 97.917 C 993.790 98.250, 988.661 98.735, 979.500 99.051 L 963.500 99.604 979.418 99.552 C 991.226 99.513, 995.443 99.177, 995.751 98.250 C 996.046 97.363, 994.910 97.049, 991.833 97.168 L 987.500 97.336 991.500 97.917 M 1108.249 98.250 C 1108.557 99.177, 1112.774 99.513, 1124.582 99.552 L 1140.500 99.604 1124.500 99.051 C 1115.339 98.735, 1110.210 98.250, 1112.500 97.917 L 1116.500 97.336 1112.167 97.168 C 1109.090 97.049, 1107.954 97.363, 1108.249 98.250 M 1785.496 98.007 C 1784.412 99.761, 1787.234 100.067, 1801.548 99.749 L 1815.500 99.439 1800.500 99.062 C 1789.590 98.788, 1786.863 98.499, 1790.500 98 L 1795.500 97.314 1790.809 97.157 C 1788.229 97.071, 1785.838 97.453, 1785.496 98.007 M 1930.496 98.007 C 1929.412 99.761, 1932.234 100.067, 1946.548 99.749 L 1960.500 99.439 1945.500 99.062 C 1934.590 98.788, 1931.863 98.499, 1935.500 98 L 1940.500 97.314 1935.809 97.157 C 1933.229 97.071, 1930.838 97.453, 1930.496 98.007 M 485.875 99.279 C 486.305 99.707, 493.147 99.930, 501.079 99.775 L 515.500 99.493 500.297 98.997 C 491.935 98.723, 485.446 98.850, 485.875 99.279 M 1496.875 99.279 C 1497.305 99.707, 1504.147 99.930, 1512.079 99.775 L 1526.500 99.493 1511.297 98.997 C 1502.935 98.723, 1496.446 98.850, 1496.875 99.279 M 204.296 99.744 C 208.583 99.932, 215.333 99.931, 219.296 99.742 C 223.258 99.552, 219.750 99.399, 211.500 99.400 C 203.250 99.401, 200.008 99.556, 204.296 99.744 M 682.797 99.745 C 687.361 99.930, 694.561 99.929, 698.797 99.742 C 703.034 99.555, 699.300 99.404, 690.500 99.405 C 681.700 99.406, 678.234 99.559, 682.797 99.745 M 873.250 99.743 C 877.513 99.931, 884.487 99.931, 888.750 99.743 C 893.013 99.556, 889.525 99.402, 881 99.402 C 872.475 99.402, 868.987 99.556, 873.250 99.743 M 926.250 99.743 C 930.513 99.931, 937.487 99.931, 941.750 99.743 C 946.013 99.556, 942.525 99.402, 934 99.402 C 925.475 99.402, 921.987 99.556, 926.250 99.743 M 1162.250 99.743 C 1166.513 99.931, 1173.487 99.931, 1177.750 99.743 C 1182.013 99.556, 1178.525 99.402, 1170 99.402 C 1161.475 99.402, 1157.987 99.556, 1162.250 99.743 M 1215.296 99.744 C 1219.583 99.932, 1226.333 99.931, 1230.296 99.742 C 1234.258 99.552, 1230.750 99.399, 1222.500 99.400 C 1214.250 99.401, 1211.008 99.556, 1215.296 99.744" stroke="none" fill="#128124" fill-rule="evenodd"/><path d="M 112.731 27.667 C 108.150 35.455, 92.007 66.306, 92.027 67.235 C 92.042 67.931, 95.532 74.800, 99.784 82.500 L 107.514 96.500 113.043 96.794 L 118.573 97.087 126.859 82.017 L 135.144 66.947 125.892 49.723 C 114.597 28.696, 113.352 26.610, 112.731 27.667 M 246.656 47.034 L 235.845 67.001 244.026 82.047 L 252.207 97.094 257.736 96.797 L 263.265 96.500 271.108 82.500 C 275.422 74.800, 278.962 67.861, 278.976 67.081 C 278.997 65.819, 259.765 29.575, 258.123 27.783 C 257.762 27.389, 252.602 36.052, 246.656 47.034 M 400.254 30.197 C 395.488 38.167, 381 65.870, 381 67.011 C 381 67.703, 384.488 74.727, 388.750 82.619 L 396.500 96.969 402 96.984 L 407.500 96.999 415.805 81.937 L 424.110 66.876 413.409 47.188 C 407.523 36.360, 402.600 27.364, 402.468 27.197 C 402.336 27.031, 401.340 28.381, 400.254 30.197 M 535.475 47.139 C 525.080 66.628, 524.782 67.363, 526.237 69.889 C 527.064 71.325, 530.767 78.034, 534.466 84.797 L 541.192 97.094 546.690 96.797 L 552.188 96.500 560.094 82.213 C 564.442 74.356, 568 67.452, 568 66.871 C 568 65.813, 547.090 27, 546.520 27 C 546.353 27, 541.383 36.063, 535.475 47.139 M 680.318 46.280 C 674.718 56.851, 669.993 65.990, 669.818 66.589 C 669.643 67.187, 673.100 74.272, 677.500 82.332 L 685.500 96.987 691 96.978 L 696.500 96.969 704.734 81.950 L 712.968 66.931 702.234 46.991 C 696.330 36.025, 691.275 27.054, 691 27.056 C 690.725 27.059, 685.918 35.710, 680.318 46.280 M 825.040 45.925 C 819.417 56.409, 814.637 65.777, 814.418 66.743 C 814.199 67.709, 817.575 74.800, 821.920 82.500 L 829.821 96.500 835.311 96.797 L 840.802 97.094 848.901 82.374 C 853.355 74.277, 857 67.306, 857 66.882 C 857 66.036, 837.145 29.002, 835.984 27.682 C 835.588 27.232, 830.663 35.441, 825.040 45.925 M 968.739 47.137 L 957.978 67.243 966.239 82.158 L 974.500 97.073 979.974 96.786 L 985.448 96.500 993.639 81.765 L 1001.829 67.031 992.165 49.164 C 986.849 39.338, 981.825 30.338, 981 29.164 C 979.569 27.129, 979.004 27.957, 968.739 47.137 M 1113.608 46.417 C 1107.774 57.160, 1103.008 66.524, 1103.018 67.225 C 1103.028 67.926, 1106.559 74.800, 1110.865 82.500 L 1118.693 96.500 1124.243 96.797 L 1129.793 97.094 1137.897 82.190 C 1142.353 73.993, 1146 67.081, 1146 66.831 C 1146 66.333, 1125.163 27.830, 1124.576 27.243 C 1124.379 27.045, 1119.443 35.673, 1113.608 46.417 M 1257.676 47.113 L 1246.852 67.106 1255.120 82.097 L 1263.387 97.088 1268.847 96.794 L 1274.307 96.500 1282.135 82.500 C 1286.441 74.800, 1289.969 67.825, 1289.976 67 C 1289.987 65.644, 1270.777 29.454, 1269.173 27.810 C 1268.803 27.430, 1263.629 36.116, 1257.676 47.113 M 1410.250 32.165 C 1401.866 47.104, 1392 65.961, 1392 67.045 C 1392 67.719, 1395.487 74.723, 1399.750 82.608 L 1407.500 96.944 1413.006 96.972 L 1418.512 97 1426.844 81.983 L 1435.176 66.965 1426.387 50.733 C 1421.553 41.805, 1416.618 32.774, 1415.421 30.665 L 1413.244 26.831 1410.250 32.165 M 1546.529 47.131 C 1538.346 62.425, 1535.957 67.712, 1536.687 68.914 C 1537.216 69.786, 1540.936 76.483, 1544.951 83.796 L 1552.252 97.092 1557.702 96.796 L 1563.151 96.500 1571.030 82.500 C 1575.363 74.800, 1578.929 67.890, 1578.954 67.144 C 1578.996 65.892, 1559.703 29.482, 1558.062 27.717 C 1557.662 27.287, 1552.472 36.023, 1546.529 47.131 M 1691.189 46.591 C 1685.517 57.335, 1681.017 66.885, 1681.189 67.813 C 1681.360 68.741, 1684.875 75.679, 1689 83.231 L 1696.500 96.961 1702.040 96.981 L 1707.579 97 1711.452 89.750 C 1713.582 85.763, 1717.307 79.027, 1719.732 74.781 L 1724.139 67.063 1713.319 47.057 C 1707.369 36.055, 1702.275 27.053, 1702 27.055 C 1701.725 27.056, 1696.860 35.848, 1691.189 46.591 M 1835.489 47.021 C 1829.611 58.033, 1825.030 67.596, 1825.309 68.271 C 1825.587 68.947, 1829.187 75.575, 1833.307 83 L 1840.799 96.500 1846.277 96.796 L 1851.756 97.093 1859.878 82.476 C 1864.345 74.437, 1868 67.431, 1868 66.905 C 1868 65.874, 1847.066 27, 1846.511 27 C 1846.326 27, 1841.366 36.010, 1835.489 47.021 M 1980.489 47.021 C 1974.611 58.033, 1970.030 67.596, 1970.309 68.271 C 1970.587 68.947, 1974.187 75.575, 1978.307 83 L 1985.799 96.500 1991.277 96.796 L 1996.756 97.093 2004.878 82.476 C 2009.345 74.437, 2013 67.431, 2013 66.905 C 2013 65.874, 1992.066 27, 1991.511 27 C 1991.326 27, 1986.366 36.010, 1980.489 47.021" stroke="none" fill="#c7213b" fill-rule="evenodd"/><path d="M 14 60.500 L 14 107 1051.500 107 L 2089 107 2089 60.500 L 2089 14 1051.500 14 L 14 14 14 60.500 M 97.355 24.234 C 96.547 25.541, 97.988 26.942, 99.532 26.349 C 100.339 26.040, 101 26.098, 101 26.479 C 101 28.169, 85.693 54.928, 84.979 54.487 C 83.905 53.823, 70 28.336, 70 27.031 C 70 26.429, 72.704 26, 76.500 26 C 80.167 26, 83 25.564, 83 25 C 83 24.376, 77.167 24, 67.500 24 C 57.833 24, 52 24.376, 52 25 C 52 26.196, 52.815 26.300, 60.097 26.036 L 65.694 25.834 74.353 41.435 C 79.115 50.016, 83.122 57.435, 83.256 57.923 C 83.390 58.411, 78.775 67.377, 73 77.848 L 62.500 96.886 57.579 97.193 C 54.709 97.372, 52.482 98.032, 52.236 98.777 C 51.905 99.782, 55.051 99.994, 67.076 99.777 C 78.192 99.575, 82.448 99.161, 82.751 98.250 C 83.032 97.405, 82.005 97, 79.583 97 C 77.612 97, 76 96.779, 76 96.508 C 76 95.479, 89.453 71, 90.019 71 C 90.346 71, 93.776 76.737, 97.641 83.750 L 104.669 96.500 100.835 96.807 C 98.726 96.977, 97 97.539, 97 98.057 C 97 98.608, 103.651 99, 113 99 C 123 99, 129 98.625, 129 98 C 129 97.450, 127.425 97, 125.500 97 C 123.575 97, 122 96.773, 122 96.495 C 122 96.043, 135.847 70.943, 136.512 70.191 C 136.786 69.881, 151 95.759, 151 96.569 C 151 96.806, 149.425 97, 147.500 97 C 145.575 97, 144 97.427, 144 97.950 C 144 98.494, 150.405 99.028, 159.002 99.200 C 168.688 99.394, 173.886 99.146, 173.673 98.500 C 173.492 97.950, 171.275 97.364, 168.747 97.198 L 164.150 96.897 153.501 77.863 C 147.644 67.394, 143.069 58.305, 143.334 57.664 C 143.599 57.024, 147.628 49.750, 152.286 41.500 L 160.755 26.500 166.128 26.356 C 173.757 26.152, 174 26.110, 174 25 C 174 24.378, 168.306 24, 158.917 24 C 147.292 24, 143.930 24.287, 144.255 25.250 C 144.532 26.069, 146.804 26.500, 150.852 26.500 C 155.817 26.500, 156.918 26.782, 156.471 27.941 C 155.126 31.433, 141.806 54.998, 141.187 54.981 C 140.653 54.966, 126.681 30.381, 125.167 26.790 C 124.983 26.356, 125.808 26, 127 26 C 128.292 26, 128.996 25.495, 128.744 24.750 C 128.432 23.824, 124.370 23.496, 113.075 23.484 C 104.689 23.476, 97.615 23.813, 97.355 24.234 M 241.358 24.230 C 240.558 25.524, 242.116 27.170, 243.601 26.600 C 244.371 26.304, 245 26.538, 245 27.118 C 245 28.234, 231.449 52.917, 230.064 54.323 C 229.390 55.007, 214 28.442, 214 26.595 C 214 26.268, 216.925 26, 220.500 26 C 224.167 26, 227 25.564, 227 25 C 227 24.376, 221.100 24, 211.300 24 C 199.694 24, 195.893 24.293, 196.722 25.122 C 197.339 25.739, 200.690 26.302, 204.168 26.372 L 210.493 26.500 216.163 36.703 C 219.281 42.315, 223.243 49.552, 224.966 52.785 L 228.100 58.664 217.493 77.780 L 206.886 96.895 202.271 97.198 C 199.647 97.370, 197.475 98.051, 197.236 98.777 C 196.905 99.783, 199.951 99.996, 211.575 99.777 C 222.292 99.576, 226.450 99.158, 226.751 98.250 C 227.032 97.404, 226.001 97, 223.565 97 L 219.963 97 225.677 86.250 C 228.819 80.338, 232.119 74.281, 233.010 72.791 L 234.629 70.081 241.564 82.721 C 245.379 89.673, 248.650 95.729, 248.833 96.180 C 249.017 96.631, 247.581 97, 245.642 97 C 243.704 97, 241.840 97.450, 241.500 98 C 241.097 98.651, 246.723 99, 257.641 99 C 267.971 99, 274.036 98.644, 273.450 98.071 C 272.928 97.561, 271.072 96.998, 269.327 96.821 L 266.154 96.500 273.141 84 C 276.984 77.125, 280.437 71.200, 280.814 70.834 C 281.191 70.467, 284.700 76.205, 288.611 83.584 L 295.722 97 291.777 97 C 289.446 97, 287.978 97.433, 288.186 98.059 C 288.460 98.880, 309.812 99.547, 318.750 99.014 C 319.163 98.990, 318.825 98.533, 318 98 C 317.175 97.467, 314.700 97.018, 312.500 97.003 L 308.500 96.975 302 85.260 C 298.425 78.816, 293.624 70.159, 291.332 66.022 L 287.164 58.500 295.395 43.827 C 299.923 35.758, 304.256 28.397, 305.024 27.471 C 306.096 26.179, 307.543 25.894, 311.220 26.247 C 314.304 26.543, 316.639 26.236, 317.759 25.386 C 319.226 24.272, 317.010 24.059, 303.667 24.032 C 291.435 24.007, 287.927 24.284, 288.246 25.250 C 288.506 26.037, 291.074 26.608, 295.179 26.792 L 301.699 27.085 294.100 41.002 C 289.920 48.657, 286.211 54.938, 285.859 54.960 C 285.094 55.008, 270 28.364, 270 26.967 C 270 26.435, 270.938 26, 272.083 26 C 273.308 26, 273.993 25.485, 273.745 24.750 C 273.431 23.822, 269.267 23.495, 257.578 23.480 C 248.919 23.468, 241.620 23.806, 241.358 24.230 M 386.355 24.234 C 385.558 25.525, 387.118 27.169, 388.601 26.600 C 389.371 26.304, 390 26.306, 390 26.604 C 390 27.549, 374.522 54.999, 374 54.980 C 373.596 54.965, 359.362 29.622, 358.167 26.790 C 357.983 26.356, 361.047 26, 364.976 26 C 369.483 26, 371.890 25.631, 371.500 25 C 371.133 24.406, 364.823 24, 355.941 24 C 346.647 24, 341 24.378, 341 25 C 341 26.187, 341.901 26.312, 348.525 26.046 C 352.320 25.894, 353.938 26.291, 355.138 27.672 C 357.191 30.036, 372 57.235, 372 58.644 C 372 59.234, 367.384 67.993, 361.741 78.108 L 351.483 96.500 346.569 97 C 343.859 97.276, 341.467 98.073, 341.235 98.777 C 340.905 99.782, 344.020 99.994, 355.910 99.777 C 364.907 99.612, 371.105 99.096, 371.252 98.500 C 371.389 97.950, 370.038 97.359, 368.250 97.187 C 366.462 97.014, 365 96.628, 365 96.329 C 365 95.255, 378.326 71, 378.906 71.017 C 379.233 71.027, 382.710 76.877, 386.634 84.017 L 393.768 97 389.884 97 C 387.748 97, 386 97.450, 386 98 C 386 98.625, 392 99, 402 99 C 412 99, 418 98.625, 418 98 C 418 97.450, 416.425 97, 414.500 97 C 412.575 97, 411 96.744, 411 96.431 C 411 96.117, 414.229 90.055, 418.175 82.958 C 424.329 71.891, 425.516 70.300, 426.513 71.778 C 427.152 72.725, 430.478 78.787, 433.905 85.250 L 440.134 97 436.626 97 C 434.697 97, 432.854 97.428, 432.530 97.951 C 432.171 98.532, 437.986 99.018, 447.473 99.201 C 457.511 99.394, 462.887 99.146, 462.674 98.500 C 462.493 97.950, 460.198 97.275, 457.574 97 L 452.804 96.500 442.441 78 C 436.742 67.825, 432.090 59.050, 432.105 58.500 C 432.119 57.950, 436.059 50.525, 440.860 42 L 449.589 26.500 455.044 26.356 C 462.778 26.153, 463 26.114, 463 24.974 C 463 24.306, 457.766 24.044, 447.998 24.224 C 438.837 24.393, 433 24.889, 433.007 25.500 C 433.013 26.063, 435.856 26.500, 439.511 26.500 C 443.082 26.500, 446.003 26.651, 446.002 26.836 C 445.997 27.807, 430.668 54.998, 430.133 54.987 C 429.596 54.977, 415.140 29.551, 414.167 26.906 C 413.983 26.408, 414.808 26, 416 26 C 417.292 26, 417.996 25.495, 417.744 24.750 C 417.432 23.824, 413.370 23.496, 402.075 23.484 C 393.689 23.476, 386.615 23.813, 386.355 24.234 M 530.358 24.230 C 529.548 25.541, 530.986 26.943, 532.532 26.349 C 533.339 26.040, 534 26.286, 534 26.898 C 534 28.013, 520.475 52.763, 519.005 54.339 C 518.349 55.042, 505.476 33.010, 503.435 27.691 C 502.866 26.208, 503.600 26, 509.393 26 C 513.131 26, 516 25.566, 516 25 C 516 24.376, 510.167 24, 500.500 24 C 490.833 24, 485 24.376, 485 25 C 485 26.121, 485.156 26.146, 493.478 26.352 L 499.456 26.500 508.202 42.552 L 516.948 58.604 506.351 77.802 L 495.753 97 491.627 97.015 C 486.856 97.033, 483.540 98.503, 486.076 99.476 C 489.013 100.603, 515.312 99.573, 515.730 98.314 C 515.972 97.585, 514.779 97.007, 512.637 96.814 L 509.150 96.500 516.202 83.167 L 523.253 69.835 530.601 83.167 L 537.949 96.500 534.441 97 C 532.512 97.275, 530.949 97.838, 530.967 98.250 C 530.985 98.662, 531.225 99, 531.500 99 C 531.775 99, 539.065 99, 547.700 99 C 557.378 99, 563.036 98.644, 562.450 98.071 C 561.928 97.561, 560.062 96.998, 558.304 96.821 L 555.108 96.500 562.026 84.009 C 565.830 77.140, 569.329 71.390, 569.801 71.233 C 570.552 70.983, 584 94.811, 584 96.392 C 584 96.726, 582.388 97, 580.417 97 C 578.340 97, 576.982 97.445, 577.186 98.059 C 577.460 98.880, 598.812 99.547, 607.750 99.014 C 608.163 98.990, 607.825 98.533, 607 98 C 606.175 97.467, 603.700 97.021, 601.500 97.010 L 597.500 96.990 587.083 78.333 C 581.354 68.072, 576.667 59.161, 576.667 58.530 C 576.667 57.070, 593.037 27.768, 594.446 26.706 C 595.026 26.269, 597.641 26.091, 600.259 26.310 C 603.232 26.559, 605.670 26.212, 606.759 25.386 C 608.226 24.272, 606.010 24.059, 592.667 24.032 C 580.435 24.007, 576.927 24.284, 577.246 25.250 C 577.502 26.024, 580.009 26.613, 583.829 26.798 C 587.223 26.961, 590 27.338, 590 27.634 C 590 28.399, 576.046 53.326, 575.054 54.334 C 574.254 55.146, 559 29.260, 559 27.090 C 559 26.491, 559.938 26, 561.083 26 C 562.308 26, 562.993 25.485, 562.745 24.750 C 562.431 23.822, 558.267 23.495, 546.578 23.480 C 537.919 23.468, 530.620 23.806, 530.358 24.230 M 675 25.117 C 675 26.761, 675.459 27.113, 677.057 26.695 C 678.189 26.399, 678.976 26.474, 678.807 26.860 C 677.445 29.976, 663.389 54.991, 663 54.991 C 662.600 54.991, 648.433 29.749, 647.167 26.781 C 646.983 26.352, 650.047 26, 653.976 26 C 658.483 26, 660.890 25.631, 660.500 25 C 660.133 24.406, 653.823 24, 644.941 24 C 635.647 24, 630 24.378, 630 25 C 630 26.191, 630.898 26.313, 637.622 26.040 C 643.733 25.792, 643.253 25.240, 654.032 44.914 L 661.382 58.327 656.762 66.914 C 654.221 71.636, 649.510 80.225, 646.294 86 L 640.446 96.500 635.551 97 C 632.856 97.275, 630.466 98.074, 630.235 98.777 C 629.905 99.782, 633.020 99.994, 644.910 99.777 C 653.907 99.612, 660.105 99.096, 660.252 98.500 C 660.389 97.950, 659.038 97.359, 657.250 97.187 C 655.462 97.014, 654 96.629, 654 96.331 C 654 95.154, 667.194 71.001, 667.825 71.023 C 668.493 71.046, 682 95.220, 682 96.392 C 682 96.726, 680.425 97, 678.500 97 C 676.030 97, 675 97.449, 675 98.525 C 675 99.839, 677.171 100.013, 690.668 99.775 C 702.112 99.574, 706.448 99.163, 706.751 98.250 C 707.032 97.405, 706.005 97, 703.583 97 C 701.612 97, 700 96.724, 700 96.386 C 700 96.048, 703.208 89.950, 707.129 82.834 L 714.259 69.896 715.939 72.698 C 716.864 74.239, 720.190 80.310, 723.331 86.188 L 729.043 96.877 725.500 97.188 C 723.552 97.360, 721.967 97.950, 721.977 98.500 C 721.988 99.109, 727.894 99.608, 737.090 99.777 C 748.980 99.994, 752.095 99.782, 751.765 98.777 C 751.534 98.074, 749.156 97.275, 746.481 97 L 741.617 96.500 731.138 77.596 L 720.660 58.693 725.020 50.596 C 727.417 46.143, 731.441 38.900, 733.961 34.500 L 738.542 26.500 744.022 26.463 C 749.291 26.427, 752 25.655, 752 24.191 C 752 23.811, 745.138 23.588, 736.750 23.695 C 724.977 23.846, 721.500 24.188, 721.500 25.195 C 721.500 26.139, 723.367 26.500, 728.252 26.500 C 731.965 26.500, 735.003 26.645, 735.002 26.823 C 734.997 27.627, 719.442 54.998, 718.989 54.999 C 718.407 55, 703 27.706, 703 26.674 C 703 26.303, 703.900 26, 705 26 C 706.111 26, 707 25.333, 707 24.500 C 707 23.229, 704.556 23, 691 23 C 675.373 23, 675 23.049, 675 25.117 M 819.500 24 C 818.573 25.501, 819.861 26.991, 821.532 26.349 C 822.339 26.040, 823 26.221, 823 26.752 C 823 28.805, 807.706 55.103, 806.964 54.324 C 805.710 53.005, 792 27.871, 792 26.890 C 792 26.400, 794.925 26, 798.500 26 C 802.167 26, 805 25.564, 805 25 C 805 24.376, 799.167 24, 789.500 24 C 779.833 24, 774 24.376, 774 25 C 774 26.118, 774.165 26.145, 782.354 26.352 L 788.208 26.500 797.052 42.497 L 805.895 58.493 803.373 62.997 C 801.986 65.473, 797.211 74.117, 792.761 82.203 L 784.672 96.907 779.665 97.203 C 776.717 97.378, 774.484 98.025, 774.236 98.777 C 773.905 99.782, 777.051 99.994, 789.076 99.777 C 800.192 99.575, 804.448 99.161, 804.751 98.250 C 805.033 97.402, 803.988 97, 801.500 97 C 799.483 97, 797.983 96.657, 798.167 96.237 C 800.538 90.809, 811.700 71.082, 812.291 71.273 C 812.727 71.413, 816.167 77.146, 819.936 84.014 L 826.788 96.500 822.831 96.811 C 820.319 97.008, 819.019 97.556, 819.270 98.311 C 819.779 99.836, 850.989 100.022, 851.021 98.500 C 851.032 97.950, 849.457 97.360, 847.521 97.190 C 845.584 97.019, 844 96.765, 844 96.626 C 844 96.487, 847.329 90.407, 851.398 83.116 L 858.797 69.858 865.898 82.815 C 869.804 89.941, 873 96.048, 873 96.386 C 873 96.724, 871.425 97, 869.500 97 C 867.056 97, 866 97.452, 866 98.500 C 866 99.767, 868.343 100, 881.083 100 C 892.703 100, 896.072 99.713, 895.755 98.750 C 895.529 98.062, 893.324 97.366, 890.853 97.203 L 886.363 96.905 875.655 77.766 L 864.947 58.627 873.913 42.563 L 882.879 26.500 888.735 26.435 C 894.487 26.372, 897.441 25.527, 896.614 24.181 C 896.384 23.806, 889.371 23.635, 881.031 23.801 C 869.791 24.024, 865.972 24.412, 866.272 25.301 C 866.528 26.060, 868.941 26.500, 872.840 26.500 C 876.230 26.500, 879.003 26.838, 879.002 27.251 C 878.998 28.734, 864.147 54.497, 863.370 54.369 C 862.368 54.204, 848.084 28.942, 848.036 27.250 C 848.016 26.563, 848.675 26, 849.500 26 C 850.325 26, 851 25.325, 851 24.500 C 851 23.231, 848.618 23, 835.559 23 C 826.344 23, 819.869 23.403, 819.500 24 M 963.685 24.377 C 963.013 26.130, 963.793 27, 966.040 27 C 967.366 27, 966.048 30.113, 960.123 40.972 C 955.930 48.657, 952.275 54.954, 952 54.966 C 951.480 54.988, 936 27.485, 936 26.538 C 936 26.242, 938.925 26, 942.500 26 C 946.167 26, 949 25.564, 949 25 C 949 24.376, 943.100 24, 933.300 24 C 921.161 24, 917.870 24.270, 918.790 25.190 C 919.445 25.845, 922.790 26.407, 926.223 26.440 L 932.466 26.500 937.043 34.500 C 939.561 38.900, 943.575 46.129, 945.963 50.564 L 950.305 58.628 939.827 77.564 L 929.349 96.500 924.502 97 C 921.836 97.275, 919.470 98.063, 919.244 98.750 C 918.928 99.713, 922.298 100, 933.917 100 C 946.376 100, 949 99.750, 949 98.560 C 949 97.657, 947.757 97.005, 945.664 96.810 L 942.328 96.500 949.098 84.022 C 952.822 77.159, 956.236 71.435, 956.684 71.302 C 957.341 71.107, 969.589 92.537, 970.833 96.057 C 971.017 96.576, 969.554 97, 967.583 97 C 965.038 97, 964 97.442, 964 98.525 C 964 99.839, 966.171 100.013, 979.668 99.775 C 991.112 99.574, 995.448 99.163, 995.751 98.250 C 996.038 97.388, 994.917 97, 992.144 97 L 988.122 97 995.151 84.250 C 999.017 77.237, 1002.484 71.178, 1002.856 70.784 C 1003.228 70.390, 1006.729 76.015, 1010.635 83.284 L 1017.738 96.500 1013.806 96.811 C 1011.314 97.007, 1010.019 97.557, 1010.269 98.311 C 1010.546 99.144, 1015.232 99.583, 1025.924 99.777 C 1037.949 99.994, 1041.095 99.782, 1040.765 98.777 C 1040.534 98.074, 1038.146 97.275, 1035.459 97 L 1030.573 96.500 1020.287 78.063 C 1014.629 67.922, 1010 59.208, 1010 58.698 C 1010 57.570, 1023.523 32.642, 1026.307 28.637 C 1028.134 26.009, 1028.695 25.812, 1033.157 26.241 C 1036.300 26.543, 1038.632 26.241, 1039.759 25.386 C 1040.716 24.659, 1041.162 24.036, 1040.750 24.002 C 1040.338 23.969, 1033.362 23.928, 1025.250 23.912 C 1013.748 23.889, 1010.500 24.171, 1010.500 25.191 C 1010.500 26.140, 1012.355 26.500, 1017.252 26.500 C 1020.966 26.500, 1023.891 26.778, 1023.752 27.117 C 1022.595 29.951, 1008.365 54.974, 1007.903 54.985 C 1007.255 55.001, 992 27.881, 992 26.713 C 992 26.321, 992.938 26, 994.083 26 C 995.305 26, 995.995 25.483, 995.751 24.750 C 995.100 22.792, 964.431 22.436, 963.685 24.377 M 1108.213 24.750 C 1108.420 25.757, 1109.300 26.375, 1110.286 26.206 C 1111.229 26.045, 1112 26.200, 1112 26.551 C 1112 28.174, 1096.731 54.952, 1096.047 54.529 C 1094.993 53.878, 1081 28.291, 1081 27.016 C 1081 26.432, 1083.766 26, 1087.500 26 C 1091.167 26, 1094 25.564, 1094 25 C 1094 24.376, 1088.167 24, 1078.500 24 C 1068.833 24, 1063 24.376, 1063 25 C 1063 26.197, 1063.813 26.300, 1071.133 26.034 L 1076.766 25.829 1085.397 41.456 C 1090.144 50.051, 1094.134 57.467, 1094.264 57.937 C 1094.394 58.406, 1089.785 67.368, 1084.021 77.851 L 1073.543 96.911 1068.600 97.206 C 1065.704 97.378, 1063.483 98.029, 1063.236 98.777 C 1062.905 99.782, 1066.051 99.994, 1078.076 99.777 C 1089.192 99.575, 1093.448 99.161, 1093.751 98.250 C 1094.032 97.405, 1093.005 97, 1090.583 97 C 1088.612 97, 1087 96.768, 1087 96.484 C 1087 95.081, 1100.606 71.046, 1101.277 71.265 C 1101.704 71.404, 1105.114 77.139, 1108.854 84.009 L 1115.655 96.500 1111.764 96.811 C 1109.304 97.007, 1108.019 97.559, 1108.269 98.311 C 1108.547 99.146, 1113.324 99.582, 1124.332 99.775 C 1137.829 100.013, 1140 99.839, 1140 98.525 C 1140 97.449, 1138.970 97, 1136.500 97 C 1134.575 97, 1133 96.844, 1133 96.653 C 1133 96.294, 1147.007 70.740, 1147.505 70.191 C 1147.784 69.882, 1162 95.751, 1162 96.569 C 1162 96.806, 1160.425 97, 1158.500 97 C 1156.056 97, 1155 97.452, 1155 98.500 C 1155 99.767, 1157.343 100, 1170.083 100 C 1181.702 100, 1185.072 99.713, 1184.756 98.750 C 1184.530 98.063, 1182.242 97.275, 1179.673 97 L 1175.001 96.500 1164.402 77.552 C 1154.233 59.372, 1153.862 58.500, 1155.259 56.052 C 1156.060 54.648, 1160.207 47.274, 1164.475 39.665 L 1172.234 25.830 1177.367 26.039 C 1184.290 26.321, 1185 26.201, 1185.001 24.750 C 1185.003 23.792, 1181.484 23.570, 1169.935 23.801 C 1158.770 24.024, 1154.972 24.412, 1155.272 25.301 C 1155.528 26.060, 1157.941 26.500, 1161.840 26.500 C 1165.230 26.500, 1168.003 26.774, 1168.002 27.109 C 1167.998 28.303, 1152.819 54.999, 1152.166 54.960 C 1151.800 54.938, 1148.042 48.588, 1143.816 40.849 C 1136.918 28.219, 1136.330 26.727, 1138.066 26.273 C 1139.130 25.994, 1140 25.144, 1140 24.383 C 1140 23.263, 1136.945 23, 1123.927 23 C 1109.148 23, 1107.882 23.141, 1108.213 24.750 M 1252.358 24.230 C 1251.558 25.524, 1253.116 27.170, 1254.601 26.600 C 1255.371 26.304, 1256 26.550, 1256 27.145 C 1256 28.470, 1242.106 53.816, 1241.009 54.495 C 1240.332 54.913, 1225 28.184, 1225 26.586 C 1225 26.264, 1227.925 26, 1231.500 26 C 1235.167 26, 1238 25.564, 1238 25 C 1238 24.376, 1232.100 24, 1222.300 24 C 1210.694 24, 1206.893 24.293, 1207.722 25.122 C 1208.339 25.739, 1211.679 26.302, 1215.144 26.372 L 1221.443 26.500 1226.522 35.500 C 1229.316 40.450, 1233.308 47.665, 1235.394 51.534 L 1239.188 58.568 1228.686 77.534 L 1218.184 96.500 1213.420 97 C 1210.799 97.275, 1208.466 98.075, 1208.235 98.777 C 1207.904 99.783, 1210.952 99.996, 1222.575 99.777 C 1233.292 99.576, 1237.450 99.158, 1237.751 98.250 C 1238.032 97.406, 1237.008 97, 1234.596 97 L 1231.026 97 1236.225 87.250 C 1239.084 81.888, 1242.368 75.828, 1243.522 73.784 L 1245.621 70.068 1252.561 82.714 C 1256.377 89.670, 1259.650 95.729, 1259.833 96.180 C 1260.017 96.631, 1258.581 97, 1256.642 97 C 1254.704 97, 1252.840 97.450, 1252.500 98 C 1252.097 98.651, 1257.656 99, 1268.441 99 C 1278.140 99, 1285 98.610, 1285 98.057 C 1285 97.539, 1283.227 96.977, 1281.060 96.807 L 1277.121 96.500 1282.165 87.500 C 1284.939 82.550, 1288.330 76.545, 1289.701 74.157 L 1292.194 69.813 1299.409 83.157 L 1306.624 96.500 1302.749 96.811 C 1300.617 96.981, 1299.023 97.570, 1299.206 98.119 C 1299.607 99.321, 1328.988 99.508, 1329.025 98.309 C 1329.038 97.864, 1326.901 97.275, 1324.275 97 L 1319.500 96.500 1308.808 77.500 C 1299.317 60.634, 1298.259 58.275, 1299.386 56.500 C 1300.084 55.400, 1303.911 48.570, 1307.889 41.322 C 1311.867 34.074, 1315.774 27.603, 1316.569 26.942 C 1317.452 26.210, 1319.759 25.938, 1322.488 26.246 C 1325.390 26.573, 1327.581 26.278, 1328.730 25.407 C 1330.236 24.264, 1328.135 24.059, 1314.667 24.032 C 1302.435 24.007, 1298.927 24.284, 1299.246 25.250 C 1299.507 26.038, 1302.081 26.608, 1306.212 26.793 L 1312.764 27.086 1305.132 41.016 C 1300.935 48.677, 1297.218 54.958, 1296.872 54.973 C 1296.152 55.004, 1281 28.169, 1281 26.862 C 1281 26.388, 1281.938 26, 1283.083 26 C 1284.308 26, 1284.993 25.485, 1284.745 24.750 C 1284.431 23.822, 1280.267 23.495, 1268.578 23.480 C 1259.919 23.468, 1252.620 23.806, 1252.358 24.230 M 1397.355 24.234 C 1396.547 25.541, 1397.988 26.942, 1399.532 26.349 C 1400.339 26.040, 1401 26.075, 1401 26.427 C 1401 27.515, 1385.645 55.002, 1385.055 54.971 C 1384.750 54.955, 1381.036 48.542, 1376.802 40.721 L 1369.103 26.500 1376.052 26.206 C 1379.873 26.045, 1383 25.482, 1383 24.956 C 1383 24.389, 1376.693 24, 1367.500 24 C 1357.833 24, 1352 24.376, 1352 25 C 1352 26.176, 1352.841 26.299, 1359.500 26.095 C 1362.250 26.011, 1364.984 26.293, 1365.575 26.721 C 1367.528 28.136, 1383.092 57.372, 1382.793 59.064 C 1382.632 59.976, 1378 68.854, 1372.500 78.793 L 1362.500 96.865 1357.579 97.182 C 1354.718 97.367, 1352.481 98.035, 1352.236 98.777 C 1351.905 99.782, 1355.019 99.994, 1366.910 99.777 C 1375.907 99.612, 1382.105 99.096, 1382.252 98.500 C 1382.389 97.950, 1381.037 97.359, 1379.250 97.187 C 1377.463 97.014, 1376 96.642, 1376 96.359 C 1376 95.386, 1389.440 71, 1389.977 71 C 1390.272 71, 1393.729 76.850, 1397.660 84 L 1404.806 97 1400.903 97 C 1398.756 97, 1397 97.450, 1397 98 C 1397 98.625, 1403 99, 1413 99 C 1423 99, 1429 98.625, 1429 98 C 1429 97.450, 1427.425 97, 1425.500 97 C 1423.575 97, 1422 96.789, 1422 96.530 C 1422 95.944, 1433.885 74.166, 1435.568 71.669 C 1436.660 70.048, 1437.589 71.309, 1443.651 82.645 C 1447.418 89.689, 1450.650 95.800, 1450.833 96.226 C 1451.017 96.652, 1449.581 97, 1447.642 97 C 1445.704 97, 1443.854 97.428, 1443.530 97.951 C 1443.171 98.532, 1448.986 99.018, 1458.473 99.201 C 1468.511 99.394, 1473.887 99.146, 1473.674 98.500 C 1473.493 97.950, 1471.208 97.275, 1468.595 97 L 1463.846 96.500 1453.465 78 C 1447.755 67.825, 1443.094 59.050, 1443.107 58.500 C 1443.120 57.950, 1447.059 50.525, 1451.860 42 L 1460.589 26.500 1466.044 26.356 C 1473.763 26.153, 1474 26.113, 1474 25 C 1474 24.378, 1468.333 24, 1459 24 C 1445.975 24, 1444 24.209, 1444 25.585 C 1444 26.904, 1445.093 27.114, 1450.502 26.835 C 1454.078 26.651, 1457.003 26.686, 1457.002 26.913 C 1456.997 27.967, 1441.742 54.998, 1441.161 54.985 C 1440.618 54.973, 1426.282 29.769, 1425.167 26.867 C 1424.983 26.390, 1425.808 26, 1427 26 C 1428.292 26, 1428.996 25.495, 1428.744 24.750 C 1428.432 23.824, 1424.370 23.496, 1413.075 23.484 C 1404.689 23.476, 1397.615 23.813, 1397.355 24.234 M 1541.358 24.230 C 1540.558 25.524, 1542.116 27.170, 1543.601 26.600 C 1544.371 26.304, 1545 26.493, 1545 27.019 C 1545 28.094, 1531.361 53.034, 1530.059 54.339 C 1529.362 55.038, 1516.532 33.155, 1514.435 27.691 C 1513.866 26.208, 1514.600 26, 1520.393 26 C 1524.131 26, 1527 25.566, 1527 25 C 1527 24.376, 1521.100 24, 1511.300 24 C 1499.694 24, 1495.893 24.293, 1496.722 25.122 C 1497.339 25.739, 1500.683 26.302, 1504.153 26.372 L 1510.462 26.500 1519.295 42.500 C 1525.625 53.965, 1527.877 58.925, 1527.238 60 C 1526.749 60.825, 1521.961 69.487, 1516.599 79.250 L 1506.850 97 1502.675 97.015 C 1497.864 97.033, 1494.529 98.498, 1497.076 99.476 C 1500.013 100.603, 1526.312 99.573, 1526.730 98.314 C 1526.972 97.586, 1525.780 97.007, 1523.639 96.814 L 1520.155 96.500 1527.240 83.237 L 1534.325 69.973 1536.754 74.237 C 1538.091 76.581, 1541.431 82.662, 1544.178 87.750 L 1549.173 97 1545.645 97 C 1543.705 97, 1541.840 97.450, 1541.500 98 C 1541.097 98.651, 1546.723 99, 1557.641 99 C 1567.971 99, 1574.036 98.644, 1573.450 98.071 C 1572.928 97.561, 1571.084 96.998, 1569.354 96.821 L 1566.208 96.500 1572.968 84.186 C 1579.549 72.199, 1582 68.514, 1582 70.610 C 1582 71.165, 1584.919 76.992, 1588.487 83.560 C 1592.055 90.127, 1594.980 95.838, 1594.987 96.250 C 1594.994 96.662, 1593.388 97, 1591.417 97 C 1589.340 97, 1587.982 97.445, 1588.186 98.059 C 1588.460 98.880, 1609.812 99.547, 1618.750 99.014 C 1619.162 98.990, 1618.825 98.533, 1618 98 C 1617.175 97.467, 1614.700 97.023, 1612.500 97.015 L 1608.500 96.999 1598.083 78.267 C 1592.354 67.965, 1587.670 59.078, 1587.675 58.518 C 1587.687 57.114, 1604.112 27.689, 1605.433 26.706 C 1606.020 26.269, 1608.641 26.091, 1611.259 26.310 C 1614.232 26.559, 1616.670 26.212, 1617.759 25.386 C 1619.226 24.272, 1617.010 24.059, 1603.667 24.032 C 1591.435 24.007, 1587.927 24.284, 1588.246 25.250 C 1588.502 26.024, 1591.009 26.613, 1594.829 26.798 C 1598.223 26.961, 1601 27.359, 1601 27.680 C 1601 28.423, 1588.368 51.115, 1586.635 53.484 C 1585.484 55.059, 1584.489 53.745, 1577.670 41.640 C 1573.451 34.152, 1570 27.570, 1570 27.013 C 1570 26.456, 1570.938 26, 1572.083 26 C 1573.308 26, 1573.993 25.485, 1573.745 24.750 C 1573.431 23.822, 1569.267 23.495, 1557.578 23.480 C 1548.919 23.468, 1541.620 23.806, 1541.358 24.230 M 1686.355 24.234 C 1685.536 25.559, 1687.136 27.162, 1688.685 26.567 C 1689.500 26.255, 1690.017 26.407, 1689.834 26.905 C 1689.005 29.157, 1674.445 54.976, 1674 54.983 C 1673.601 54.990, 1659.441 29.769, 1658.167 26.781 C 1657.983 26.352, 1661.047 26, 1664.976 26 C 1669.483 26, 1671.890 25.631, 1671.500 25 C 1671.133 24.406, 1664.823 24, 1655.941 24 C 1646.647 24, 1641 24.378, 1641 25 C 1641 26.187, 1641.901 26.312, 1648.525 26.046 C 1652.328 25.894, 1653.929 26.289, 1655.113 27.672 C 1655.973 28.678, 1660.173 35.927, 1664.446 43.783 C 1673.525 60.474, 1673.971 56.201, 1660.667 80 L 1651.444 96.500 1646.550 97 C 1643.855 97.275, 1641.466 98.074, 1641.235 98.777 C 1640.905 99.782, 1644.020 99.994, 1655.910 99.777 C 1664.907 99.612, 1671.105 99.096, 1671.252 98.500 C 1671.389 97.950, 1670.037 97.359, 1668.250 97.187 C 1666.463 97.014, 1665 96.654, 1665 96.385 C 1665 95.254, 1678.230 71.002, 1678.836 71.023 C 1679.497 71.046, 1693 95.232, 1693 96.392 C 1693 96.726, 1691.425 97, 1689.500 97 C 1687.575 97, 1686 97.450, 1686 98 C 1686 98.625, 1692 99, 1702 99 C 1712 99, 1718 98.625, 1718 98 C 1718 97.450, 1716.425 97, 1714.500 97 C 1712.575 97, 1711 96.724, 1711 96.386 C 1711 96.048, 1714.208 89.950, 1718.129 82.834 L 1725.259 69.896 1726.951 72.698 C 1727.882 74.239, 1731.219 80.309, 1734.366 86.187 L 1740.088 96.874 1736.523 97.187 C 1734.562 97.359, 1732.855 97.862, 1732.729 98.305 C 1732.603 98.747, 1739.363 99.197, 1747.750 99.305 C 1757.555 99.430, 1762.883 99.143, 1762.673 98.500 C 1762.492 97.950, 1760.170 97.275, 1757.513 97 L 1752.681 96.500 1742.360 78 C 1736.684 67.825, 1732.046 59.050, 1732.054 58.500 C 1732.063 57.950, 1736 50.525, 1740.805 42 L 1749.540 26.500 1755.020 26.356 C 1762.779 26.153, 1763 26.115, 1763 24.974 C 1763 24.306, 1757.766 24.044, 1747.998 24.224 C 1738.837 24.393, 1733 24.889, 1733.007 25.500 C 1733.013 26.063, 1735.856 26.500, 1739.511 26.500 C 1743.082 26.500, 1746.003 26.664, 1746.002 26.865 C 1745.998 27.739, 1730.536 55, 1730.045 54.999 C 1729.477 54.998, 1714 27.577, 1714 26.573 C 1714 26.258, 1714.938 26, 1716.083 26 C 1717.309 26, 1717.993 25.485, 1717.744 24.750 C 1717.432 23.824, 1713.370 23.496, 1702.075 23.484 C 1693.689 23.476, 1686.615 23.813, 1686.355 24.234 M 1830.346 24.250 C 1829.545 25.544, 1830.997 26.938, 1832.532 26.349 C 1833.339 26.040, 1834 26.214, 1834 26.738 C 1834 28.166, 1819.479 54.174, 1818.584 54.349 C 1817.796 54.503, 1803 28.389, 1803 26.845 C 1803 26.380, 1805.925 26, 1809.500 26 C 1813.167 26, 1816 25.564, 1816 25 C 1816 24.376, 1810.167 24, 1800.500 24 C 1790.833 24, 1785 24.376, 1785 25 C 1785 26.119, 1785.163 26.145, 1793.388 26.352 L 1799.277 26.500 1803.715 34.500 C 1806.157 38.900, 1810.124 46.107, 1812.530 50.516 L 1816.907 58.532 1806.459 77.516 L 1796.012 96.500 1790.756 97 C 1787.865 97.275, 1785.612 97.950, 1785.750 98.500 C 1786.128 100.011, 1815.223 99.831, 1815.729 98.314 C 1815.972 97.583, 1814.771 97.008, 1812.597 96.814 L 1809.071 96.500 1816.146 83.132 L 1823.221 69.764 1830.545 83.132 L 1837.868 96.500 1834.401 97 C 1832.494 97.275, 1830.949 97.838, 1830.967 98.250 C 1830.985 98.662, 1831.225 99, 1831.500 99 C 1831.775 99, 1839.065 99, 1847.700 99 C 1857.378 99, 1863.036 98.644, 1862.450 98.071 C 1861.928 97.561, 1860.049 96.998, 1858.276 96.821 L 1855.051 96.500 1862.391 83.182 L 1869.730 69.864 1872.218 74.182 C 1876.741 82.033, 1884 95.692, 1884 96.351 C 1884 96.708, 1882.388 97, 1880.417 97 C 1878.340 97, 1876.982 97.445, 1877.186 98.059 C 1877.460 98.880, 1898.812 99.547, 1907.750 99.014 C 1908.162 98.990, 1907.825 98.533, 1907 98 C 1906.175 97.467, 1903.699 97.024, 1901.497 97.015 L 1897.494 97 1886.749 77.841 L 1876.004 58.681 1884.658 43.091 C 1889.418 34.516, 1893.805 27.143, 1894.406 26.706 C 1895.008 26.269, 1897.641 26.091, 1900.259 26.310 C 1903.232 26.559, 1905.670 26.212, 1906.759 25.386 C 1908.226 24.272, 1906.010 24.059, 1892.667 24.032 C 1880.435 24.007, 1876.927 24.284, 1877.246 25.250 C 1877.502 26.024, 1880.009 26.613, 1883.829 26.798 C 1887.223 26.961, 1890 27.340, 1890 27.638 C 1890 28.430, 1874.931 55, 1874.482 55 C 1873.826 55, 1859 28.303, 1859 27.123 C 1859 26.505, 1859.886 26, 1860.969 26 C 1862.358 26, 1862.758 25.532, 1862.327 24.409 C 1861.797 23.028, 1859.674 22.863, 1846.263 23.159 C 1837.763 23.347, 1830.601 23.837, 1830.346 24.250 M 1975.346 24.250 C 1974.545 25.544, 1975.997 26.938, 1977.532 26.349 C 1978.339 26.040, 1979 26.214, 1979 26.738 C 1979 28.166, 1964.479 54.174, 1963.584 54.349 C 1962.796 54.503, 1948 28.389, 1948 26.845 C 1948 26.380, 1950.925 26, 1954.500 26 C 1958.167 26, 1961 25.564, 1961 25 C 1961 24.376, 1955.167 24, 1945.500 24 C 1935.833 24, 1930 24.376, 1930 25 C 1930 26.119, 1930.163 26.145, 1938.388 26.352 L 1944.277 26.500 1948.715 34.500 C 1951.157 38.900, 1955.124 46.107, 1957.530 50.516 L 1961.907 58.532 1951.459 77.516 L 1941.012 96.500 1935.756 97 C 1932.865 97.275, 1930.612 97.950, 1930.750 98.500 C 1931.128 100.011, 1960.223 99.831, 1960.729 98.314 C 1960.972 97.583, 1959.771 97.008, 1957.597 96.814 L 1954.071 96.500 1961.146 83.132 L 1968.221 69.764 1975.545 83.132 L 1982.868 96.500 1979.401 97 C 1977.494 97.275, 1975.949 97.838, 1975.967 98.250 C 1975.985 98.662, 1976.225 99, 1976.500 99 C 1976.775 99, 1984.065 99, 1992.700 99 C 2002.378 99, 2008.036 98.644, 2007.450 98.071 C 2006.928 97.561, 2005.049 96.998, 2003.276 96.821 L 2000.051 96.500 2007.391 83.182 L 2014.730 69.864 2017.218 74.182 C 2021.741 82.033, 2029 95.692, 2029 96.351 C 2029 96.708, 2027.388 97, 2025.417 97 C 2023.340 97, 2021.982 97.445, 2022.186 98.059 C 2022.460 98.880, 2043.812 99.547, 2052.750 99.014 C 2053.162 98.990, 2052.825 98.533, 2052 98 C 2051.175 97.467, 2048.699 97.024, 2046.497 97.015 L 2042.494 97 2031.749 77.841 L 2021.004 58.681 2029.658 43.091 C 2034.418 34.516, 2038.805 27.143, 2039.406 26.706 C 2040.008 26.269, 2042.641 26.091, 2045.259 26.310 C 2048.232 26.559, 2050.670 26.212, 2051.759 25.386 C 2053.226 24.272, 2051.010 24.059, 2037.667 24.032 C 2025.435 24.007, 2021.927 24.284, 2022.246 25.250 C 2022.502 26.024, 2025.009 26.613, 2028.829 26.798 C 2032.223 26.961, 2035 27.340, 2035 27.638 C 2035 28.430, 2019.931 55, 2019.482 55 C 2018.826 55, 2004 28.303, 2004 27.123 C 2004 26.505, 2004.886 26, 2005.969 26 C 2007.358 26, 2007.758 25.532, 2007.327 24.409 C 2006.797 23.028, 2004.674 22.863, 1991.263 23.159 C 1982.763 23.347, 1975.601 23.837, 1975.346 24.250" stroke="none" fill="#fffefe" fill-rule="evenodd"/></svg>